<svg xmlns="http://www.w3.org/2000/svg" width="122.28" height="40" viewBox="0 0 122.28 40"><title>apple_store</title><path d="M5.41,0H116.88a5.41,5.41,0,0,1,5.41,5.41V34.59A5.41,5.41,0,0,1,116.88,40H5.4A5.4,5.4,0,0,1,0,34.6V5.41A5.41,5.41,0,0,1,5.41,0Z"/><path d="M31.89,26.44a19.68,19.68,0,0,1-1.79,3.34c-1.17,1.78-2.8,4-4.84,4-1.8,0-2.26-1.18-4.71-1.16s-3,1.18-4.77,1.16c-2,0-3.58-2-4.75-3.78C7.78,25.05,7.44,19.24,9.45,16.15a7.2,7.2,0,0,1,5.79-3.48c2.15,0,3.5,1.18,5.28,1.18s2.78-1.18,5.27-1.18a7,7,0,0,1,5.29,2.8A6.06,6.06,0,0,0,31.89,26.44Z" fill="#fff"/><path d="M23.9,10.69a6,6,0,0,0,1.34-4.47A6.51,6.51,0,0,0,21,8.49a5.6,5.6,0,0,0-1.38,4.36A5.5,5.5,0,0,0,23.9,10.69Z" fill="#fff"/><path d="M41.8,16.08,37.14,29.79h2.13l1.39-4.21h4.51l1.43,4.21h2.19L44.12,16.08Zm1.1,2.25c.16.62.33,1.25.55,1.94L44.7,23.9H41.13l1.24-3.66C42.56,19.65,42.73,19,42.9,18.33Z" fill="#fff"/><path d="M54.82,19.63a3.9,3.9,0,0,0-3.3,1.59l-.08-1.37h-1.9l0,.18c0,.85.07,1.78.07,3.12V33.72h2.08V28.79A3.63,3.63,0,0,0,54.54,30a4.26,4.26,0,0,0,3.15-1.34,5.66,5.66,0,0,0,1.39-4A5.51,5.51,0,0,0,57.87,21,3.93,3.93,0,0,0,54.82,19.63Zm-.51,1.72c1.84,0,2.67,1.71,2.67,3.41,0,2.19-1,3.55-2.75,3.55a2.52,2.52,0,0,1-2.45-1.92,2.63,2.63,0,0,1-.07-.68V24.05a3.46,3.46,0,0,1,.06-.52.45.45,0,0,0,0-.16A2.63,2.63,0,0,1,54.31,21.35Z" fill="#fff"/><path d="M65.51,19.63a3.87,3.87,0,0,0-3.3,1.59l-.09-1.37H60.23V20c0,.85.08,1.78.08,3.12V33.72h2.07V28.79A3.65,3.65,0,0,0,65.23,30a4.24,4.24,0,0,0,3.14-1.34,5.66,5.66,0,0,0,1.39-4A5.51,5.51,0,0,0,68.55,21,3.92,3.92,0,0,0,65.51,19.63ZM65,21.35c1.85,0,2.68,1.71,2.68,3.41,0,2.19-1.06,3.55-2.76,3.55a2.5,2.5,0,0,1-2.44-1.92,2.59,2.59,0,0,1-.08-.68V24.05a3.39,3.39,0,0,1,.07-.52l0-.16A2.62,2.62,0,0,1,65,21.35Z" fill="#fff"/><path d="M78.89,21.89c-1.94-.75-2.56-1.34-2.56-2.43,0-.92.73-1.84,2.36-1.84a4.65,4.65,0,0,1,2.44.61l.17.11.59-1.73-.12-.07a6,6,0,0,0-3-.68c-2.65,0-4.49,1.56-4.49,3.8,0,1.8,1.15,3.06,3.64,4,1.76.66,2.41,1.34,2.41,2.49,0,1.31-1,2.12-2.63,2.12a5.66,5.66,0,0,1-3-.85l-.18-.11L74,29l.1.07a7.17,7.17,0,0,0,3.51.9c3.56,0,4.83-2.18,4.83-4S81.38,22.87,78.89,21.89Z" fill="#fff"/><path d="M86.12,17.49l-2,.64v1.72H82.6v1.66h1.49v5.08a3.83,3.83,0,0,0,.72,2.63,2.63,2.63,0,0,0,2,.79,5,5,0,0,0,1.61-.25l.11,0-.09-1.66-.2.06a3.23,3.23,0,0,1-1,.11c-.8,0-1.15-.51-1.15-1.7v-5h2.51V19.85H86.12Z" fill="#fff"/><path d="M93.77,19.63c-2.9,0-4.93,2.17-4.93,5.27S90.8,30,93.61,30h0a4.9,4.9,0,0,0,4.93-5.29,5.29,5.29,0,0,0-1.32-3.67A4.61,4.61,0,0,0,93.77,19.63Zm-.06,1.64c1.86,0,2.71,1.82,2.71,3.51,0,2.08-1.16,3.59-2.75,3.59h0c-1.57,0-2.72-1.48-2.72-3.53C90.93,23.07,91.79,21.27,93.71,21.27Z" fill="#fff"/><path d="M104.91,19.73l-.12,0a1.81,1.81,0,0,0-.52-.07,3,3,0,0,0-2.6,1.67l-.06-1.45H99.75V20c.06.82.08,1.74.08,3l0,6.78h2.07V24.5a5,5,0,0,1,.06-.8,2.3,2.3,0,0,1,2.18-2.09,4.73,4.73,0,0,1,.56,0l.22,0Z" fill="#fff"/><path d="M109.58,19.61c-2.76,0-4.69,2.21-4.69,5.37a4.64,4.64,0,0,0,4.89,5,7.91,7.91,0,0,0,3.28-.63l.13-.06-.4-1.54-.18.07a6.4,6.4,0,0,1-2.6.46,2.87,2.87,0,0,1-3.1-3l6.69,0,0-.13a4.77,4.77,0,0,0,.06-.86C113.69,22.14,112.61,19.61,109.58,19.61Zm-.14,1.58a2.07,2.07,0,0,1,1.52.58,3,3,0,0,1,.72,1.93H107A2.65,2.65,0,0,1,109.44,21.19Z" fill="#fff"/><path d="M37.14,6.71a14.54,14.54,0,0,1,2-.13,4.45,4.45,0,0,1,2.92.8,2.85,2.85,0,0,1,1,2.34,3.31,3.31,0,0,1-1,2.52,4.87,4.87,0,0,1-3.2.93,13.83,13.83,0,0,1-1.7-.08Zm.94,5.75a6.43,6.43,0,0,0,.94,0c2,0,3.07-1,3.07-2.76,0-1.55-1-2.5-2.92-2.5a5.6,5.6,0,0,0-1.09.09Z" fill="#fff"/><path d="M46.41,13.22a2.34,2.34,0,0,1-2.48-2.4A2.4,2.4,0,0,1,46.5,8.35,2.32,2.32,0,0,1,49,10.74a2.41,2.41,0,0,1-2.57,2.48Zm0-.64A1.66,1.66,0,0,0,48,10.76a1.58,1.58,0,1,0-3.14,0,1.62,1.62,0,0,0,1.55,1.79Z" fill="#fff"/><path d="M50.48,8.46l.7,2.35c.13.52.27,1,.37,1.5h0c.12-.48.29-1,.46-1.49l.85-2.36h.79l.8,2.32c.19.55.34,1.05.46,1.53h0a13.81,13.81,0,0,1,.4-1.52l.74-2.33H57l-1.67,4.66h-.86l-.79-2.23a16.06,16.06,0,0,1-.46-1.54h0a13.41,13.41,0,0,1-.47,1.55l-.84,2.22h-.85L49.52,8.46Z" fill="#fff"/><path d="M58,9.72c0-.5,0-.88,0-1.26h.83l.06.75h0a2,2,0,0,1,1.71-.86,1.77,1.77,0,0,1,1.83,2v2.79h-.94V10.43c0-.75-.31-1.39-1.2-1.39A1.34,1.34,0,0,0,59,9.91a1,1,0,0,0-.07.39v2.82H58Z" fill="#fff"/><path d="M63.92,6.28h.94v6.84h-.94Z" fill="#fff"/><path d="M68.53,13.22a2.34,2.34,0,0,1-2.48-2.4,2.4,2.4,0,0,1,2.57-2.47,2.32,2.32,0,0,1,2.49,2.39,2.41,2.41,0,0,1-2.57,2.48Zm0-.64a1.66,1.66,0,0,0,1.58-1.82,1.58,1.58,0,1,0-3.14,0,1.62,1.62,0,0,0,1.55,1.79Z" fill="#fff"/><path d="M76,12A7.64,7.64,0,0,0,76,13.12h-.85l-.08-.59h0a2,2,0,0,1-1.59.69,1.41,1.41,0,0,1-1.58-1.34c0-1.12,1.11-1.74,3.11-1.73v-.1C75,9.67,74.89,9,73.83,9a2.69,2.69,0,0,0-1.36.35l-.22-.57A3.67,3.67,0,0,1,74,8.35a1.73,1.73,0,0,1,2,1.9ZM75,10.74c-1,0-2.2.14-2.2,1a.79.79,0,0,0,.88.8A1.31,1.31,0,0,0,75,11.82a.68.68,0,0,0,0-.27Z" fill="#fff"/><path d="M81.93,6.28v5.63c0,.42,0,.89,0,1.21h-.85l0-.81h0a1.93,1.93,0,0,1-1.75.91,2.22,2.22,0,0,1-2.23-2.37,2.32,2.32,0,0,1,2.32-2.5,1.79,1.79,0,0,1,1.56.7h0V6.28Zm-1,4.07a1.47,1.47,0,0,0,0-.36,1.37,1.37,0,0,0-1.36-1A1.59,1.59,0,0,0,78,10.8a1.55,1.55,0,0,0,1.53,1.74,1.41,1.41,0,0,0,1.38-1,1.45,1.45,0,0,0,0-.37Z" fill="#fff"/><path d="M87.87,13.22a2.34,2.34,0,0,1-2.49-2.4A2.4,2.4,0,0,1,88,8.35a2.32,2.32,0,0,1,2.49,2.39,2.41,2.41,0,0,1-2.56,2.48Zm0-.64a1.65,1.65,0,0,0,1.57-1.82,1.58,1.58,0,1,0-3.13,0,1.62,1.62,0,0,0,1.55,1.79Z" fill="#fff"/><path d="M91.63,9.72c0-.5,0-.88,0-1.26h.83l.06.75h0a2,2,0,0,1,1.71-.86,1.77,1.77,0,0,1,1.83,2v2.79H95.1V10.43c0-.75-.31-1.39-1.2-1.39a1.34,1.34,0,0,0-1.26.87,1,1,0,0,0-.07.39v2.82h-.94Z" fill="#fff"/><path d="M101,7.34V8.46h1.35V9.1H101v2.51c0,.58.18.91.71.91a1.78,1.78,0,0,0,.54-.06l0,.64a2.73,2.73,0,0,1-.84.12,1.36,1.36,0,0,1-1-.36,1.67,1.67,0,0,1-.37-1.22V9.1h-.8V8.46h.8V7.6Z" fill="#fff"/><path d="M103.38,6.28h.94V9.19h0a1.6,1.6,0,0,1,.68-.6,2,2,0,0,1,1-.24,1.77,1.77,0,0,1,1.81,2v2.78h-.94V10.44c0-.76-.31-1.39-1.2-1.39a1.35,1.35,0,0,0-1.26.85.82.82,0,0,0-.07.4v2.82h-.94Z" fill="#fff"/><path d="M109.85,10.93a1.59,1.59,0,0,0,1.77,1.62,4,4,0,0,0,1.43-.23l.17.59a4.5,4.5,0,0,1-1.73.3,2.3,2.3,0,0,1-2.55-2.35,2.38,2.38,0,0,1,2.44-2.52,2,2,0,0,1,2.13,2.2,2.1,2.1,0,0,1,0,.4Zm2.75-.61A1.24,1.24,0,0,0,111.31,9a1.48,1.48,0,0,0-1.45,1.37Z" fill="#fff"/></svg>