<svg xmlns="http://www.w3.org/2000/svg" width="108.77" height="93.99" viewBox="0 0 108.77 93.99"><title>elekter-big</title><path d="M3.2,94a5.33,5.33,0,0,1-1-.06,2.78,2.78,0,0,1-1.86-4c.81-1.49,1.65-3,2.49-4.43C18.42,57.71,35.55,29.55,51.15,1.79c.1-.16.18-.31.27-.47a2.78,2.78,0,0,1,4.64-.13c.26.38.72,1.17.72,1.17s48.86,83,51.49,87.25a2.86,2.86,0,0,1,.35,2.49A2.74,2.74,0,0,1,106,94H3.2Zm98-5.52C84.87,61.8,70.16,34.83,53.92,8.25h-.09C52.08,11.12,7.63,88,7.52,88.47Z" fill="#00aae7" fill-rule="evenodd"/><path d="M56.08,73.69l3.92-2a.42.42,0,0,0,.06.08c-2.71,4.15-5.41,8.31-8.18,12.57-1.08-4.87-2.14-9.64-3.2-14.39l.08,0c1,1,2,2,3.12,3.07.63-5.69,1.25-11.26,1.86-16.82a.08.08,0,0,0-.06,0s0,0-.06,0L40.89,63.75c-.11-.13,0-.23,0-.34q3.34-13.24,6.66-26.48c.48-1.88.94-3.76,1.43-5.63,0-.13.07-.25.09-.37a.21.21,0,0,1,.25-.2h8.62c-1.48,3.89-3,7.72-4.47,11.56s-3,7.65-4.39,11.53c1.19-.57,2.29-1.27,3.43-1.92l3.42-2c1.14-.68,2.29-1.34,3.43-2l3.51-2c-2.27,9.3-4.51,18.51-6.79,27.84" fill="#00aae7" fill-rule="evenodd"/></svg>