<svg xmlns="http://www.w3.org/2000/svg" width="49.18" height="42.5" viewBox="0 0 49.18 42.5"><title>elekter</title><path d="M1.45,42.5a2.84,2.84,0,0,1-.46,0,1.26,1.26,0,0,1-.84-1.82c.37-.68.75-1.34,1.12-2C8.33,26.1,16.07,13.36,23.13.81L23.25.6a1.26,1.26,0,0,1,2.1-.06c.12.17.33.53.33.53S47.77,38.58,49,40.52a1.3,1.3,0,0,1,.16,1.13,1.24,1.24,0,0,1-1.18.85H1.45ZM45.75,40C38.38,28,31.73,15.75,24.38,3.73h0C23.55,5,3.45,39.8,3.4,40Z" fill="#00aae7" fill-rule="evenodd"/><path d="M25.36,33.32l1.77-.88,0,0c-1.23,1.87-2.45,3.76-3.7,5.68L22,31.65l0,0L23.46,33c.28-2.57.56-5.09.84-7.61h-.05l-5.76,3.43c0-.06,0-.11,0-.16q1.52-6,3-12c.22-.85.43-1.7.65-2.55,0-.06,0-.11,0-.16s0-.1.11-.09h3.9c-.67,1.76-1.35,3.49-2,5.23s-1.34,3.46-2,5.21c.54-.26,1-.57,1.55-.87s1-.6,1.55-.9l1.55-.91,1.59-.93c-1,4.21-2,8.37-3.07,12.59" fill="#00aae7" fill-rule="evenodd"/></svg>