<svg xmlns="http://www.w3.org/2000/svg" width="153.73" height="70.19" viewBox="0 0 153.73 70.19"><title>elektrilevi</title><path d="M23.6,8.75h0A1.64,1.64,0,1,0,22,7.1,1.64,1.64,0,0,0,23.6,8.75" fill="#fff"/><path d="M20.75,15.31h0a2,2,0,1,0-1.94-2,2,2,0,0,0,.56,1.39,2,2,0,0,0,1.37.57m0-.27Z" fill="#fff"/><path d="M17.9,21.8h0a2.2,2.2,0,1,0-1.57-.65,2.22,2.22,0,0,0,1.57.65" fill="#fff"/><path d="M15.13,28.18h0a2.44,2.44,0,1,0-2.42-2.45,2.44,2.44,0,0,0,2.42,2.45m0-.27Z" fill="#fff"/><path d="M12.24,34.6h0a2.59,2.59,0,1,0-1.85-.76,2.61,2.61,0,0,0,1.85.76" fill="#fff"/><path d="M24.83,48.09a2.51,2.51,0,0,0-2.51,2.51A2.46,2.46,0,0,0,23,52.38a2.53,2.53,0,0,0,1.77.75h0a2.52,2.52,0,0,0,0-5" fill="#fff"/><path d="M22,54.5a2.3,2.3,0,0,0,0,4.6h0a2.3,2.3,0,0,0,0-4.6" fill="#fff"/><path d="M19.15,61.19a1.81,1.81,0,0,0,0,3.62h0a1.81,1.81,0,0,0,0-3.62m0,3.37Z" fill="#fff"/><path d="M8.06,27h0a1.2,1.2,0,0,0,1.19-1.2,1.19,1.19,0,0,0-.35-.85,1.16,1.16,0,0,0-.84-.35,1.19,1.19,0,0,0-1.2,1.19A1.21,1.21,0,0,0,8.06,27" fill="#fff"/><path d="M16.2,70.19h0a1,1,0,0,0,.85-1.55,1,1,0,0,0-.64-.35,1,1,0,1,0-.21,1.9" fill="#fff"/><path d="M26.44,1.92h0a1,1,0,0,0,.94-1,.92.92,0,0,0-.27-.68A1,1,0,0,0,26.44,0a1,1,0,0,0-1,1,1,1,0,0,0,1,1" fill="#fff"/><path d="M5.16,33.85h0A1.85,1.85,0,0,0,7,32a1.83,1.83,0,0,0-.53-1.33A1.87,1.87,0,0,0,3.31,32a1.85,1.85,0,0,0,.54,1.32,1.81,1.81,0,0,0,1.31.55" fill="#fff"/><path d="M20.6,46.84a2.45,2.45,0,1,0-2.45-2.45,2.44,2.44,0,0,0,2.45,2.45Z" fill="#fff"/><path d="M17.75,52.56h0a2,2,0,0,0,1.95-2,1.92,1.92,0,0,0-.57-1.39,2,2,0,1,0-1.39,3.35" fill="#fff"/><path d="M13.69,56.78a1.26,1.26,0,0,0,1.25,1.27h0a1.27,1.27,0,0,0,0-2.54,1.27,1.27,0,0,0-1.26,1.27" fill="#fff"/><path d="M26.64,13.36a1.2,1.2,0,0,0,1.18,1.2h0A1.2,1.2,0,0,0,29,13.37a1.19,1.19,0,1,0-2.37,0" fill="#fff"/><path d="M25,21.44a1.87,1.87,0,0,0,1.85-1.85,1.85,1.85,0,1,0-3.69,0,1.88,1.88,0,0,0,.53,1.31,1.9,1.9,0,0,0,1.31.55Z" fill="#fff"/><path d="M19.88,25.74a2.33,2.33,0,0,0,2.31,2.34h0a2.34,2.34,0,1,0-2.33-2.34m2.33,2.07Z" fill="#fff"/><path d="M37.57,36.23a2,2,0,0,0-1.94,2,1.95,1.95,0,0,0,1.94,2h0a2,2,0,0,0,0-3.92" fill="#fff"/><path d="M34.71,43.09a1.27,1.27,0,0,0,0,2.54h0a1.27,1.27,0,0,0,0-2.54" fill="#fff"/><path d="M19.3,34.6h0A2.61,2.61,0,1,0,16.71,32a2.57,2.57,0,0,0,.75,1.85,2.63,2.63,0,0,0,1.84.77m0-.27Z" fill="#fff"/><path d="M33.31,34.6h0A2.61,2.61,0,1,0,30.72,32a2.58,2.58,0,0,0,.76,1.85,2.61,2.61,0,0,0,1.83.77" fill="#fff"/><path d="M40.38,34.33h0a2.32,2.32,0,1,0-1.67-.68,2.31,2.31,0,0,0,1.65.68m0-.24Z" fill="#fff"/><path d="M2.34,40.54h0a2.36,2.36,0,0,0,0-4.71A2.36,2.36,0,0,0,0,38.18a2.3,2.3,0,0,0,.69,1.66,2.27,2.27,0,0,0,1.65.7" fill="#fff"/><path d="M9.41,40.8h0A2.58,2.58,0,1,0,7.57,40a2.58,2.58,0,0,0,1.84.76" fill="#fff"/><path d="M16.48,40.8h0a2.61,2.61,0,1,0-2.6-2.62A2.65,2.65,0,0,0,14.64,40a2.58,2.58,0,0,0,1.84.76" fill="#fff"/><path d="M26.25,34.6h0a2.59,2.59,0,1,0-1.85-.76,2.61,2.61,0,0,0,1.85.76" fill="#fff"/><path d="M23.42,40.8h0A2.6,2.6,0,1,0,21.59,40a2.56,2.56,0,0,0,1.83.76" fill="#fff"/><path d="M30.48,40.8h0A2.6,2.6,0,1,0,28.65,40a2.56,2.56,0,0,0,1.83.76" fill="#fff"/><path d="M27.64,47h0a2.61,2.61,0,1,0-2.6-2.62,2.65,2.65,0,0,0,.75,1.85,2.56,2.56,0,0,0,1.84.77" fill="#fff"/><path d="M66.72,44.51V25.44c-.45.13-.91.28-1.35.43l-1.16.36c0,4.58,0,9.25,0,13.76v4.52Z" fill="#fff"/><path d="M88.33,36.89l0,0,0,0,.23-.2a6.23,6.23,0,0,0,2.63-5.31H88.87a4,4,0,0,1-1.77,3.43c-1.74,1.38-3.15,2.59-3.17,2.59l-.09.08v-.12s0-7.68,0-11.85l-.64.21-1.87.6c0,3.49,0,7,0,10.45,0,2.56,0,5.21,0,7.81h2.51v-4.1l2.63-2.12,0,0s.77,1.06,1.59,2.43a5.73,5.73,0,0,1,1.19,3.75h2.48a6.68,6.68,0,0,0-1.43-4.62c-1-1.49-2-3-2-3" fill="#fff"/><path d="M117.05,25.87l-1.15.36c0,4.6,0,9.26,0,13.79v4.49h2.51V25.44l-1.34.43" fill="#fff"/><path d="M94.49,35.15c0,2.1,0,4.28,0,6.41a2.89,2.89,0,0,0,2,2.95,7.1,7.1,0,0,0,1.63.19,4.63,4.63,0,0,0,2.53-.66,4.89,4.89,0,0,1-.3-.75,3.32,3.32,0,0,0-.43-1,4,4,0,0,1-2.33.4A1,1,0,0,1,97,41.58V33h2.73v-.41c0-.42,0-.86,0-1.29-.42,0-.83,0-1.14,0H97V27.82c-.45.07-.9.17-1.34.26s-.77.17-1.18.24v3H93.15V33h1.34v2.11" fill="#fff"/><path d="M108.57,33.25c0-.71,0-1.43,0-2.14l-.78,0a11.77,11.77,0,0,0-5.67,1.18c0,2.34,0,4.72,0,7v5.22h2.51V41.86c0-2.68,0-5.44,0-8.16v0h0a10.76,10.76,0,0,1,3.23-.41h.68" fill="#fff"/><path d="M112.77,26.44a1.6,1.6,0,0,0-1.15-.52,1.22,1.22,0,0,0-.68.19,1.44,1.44,0,0,0-.77,1.29,1.49,1.49,0,0,0,.72,1.34,1.42,1.42,0,0,0,.72.2,1.53,1.53,0,0,0,1.52-1.44,1.39,1.39,0,0,0-.36-1.06" fill="#fff"/><rect x="110.4" y="31.29" width="2.51" height="13.22" fill="#fff"/><path d="M147.86,26.44a1.58,1.58,0,0,0-1.15-.52,1.27,1.27,0,0,0-.68.19,1.43,1.43,0,0,0-.76,1.29,1.47,1.47,0,0,0,.72,1.34,1.36,1.36,0,0,0,.71.2,1.53,1.53,0,0,0,1.52-1.44,1.36,1.36,0,0,0-.36-1.06" fill="#fff"/><rect x="145.49" y="31.29" width="2.51" height="13.22" fill="#fff"/><path d="M52.05,41.7a4.31,4.31,0,0,0,3.14,2.77,9.87,9.87,0,0,0,2,.23A5.72,5.72,0,0,0,60.16,44,4.48,4.48,0,0,0,62,40.87H59.65A2,2,0,0,1,58.2,42.4a4.48,4.48,0,0,1-1.14.16,2.89,2.89,0,0,1-2.22-.89,4.51,4.51,0,0,1-.69-3v-.33h8v-.4a9.05,9.05,0,0,0-.8-4.7,4.22,4.22,0,0,0-3.23-2,8.13,8.13,0,0,0-1.1-.07,5.56,5.56,0,0,0-3.88,1.37,5.88,5.88,0,0,0-1.54,4.39c0,.33,0,.67,0,1a10.83,10.83,0,0,0,.41,3.84m2.08-5.39a3.15,3.15,0,0,1,1.21-2.83,3.41,3.41,0,0,1,1.7-.43,4,4,0,0,1,1.42.27c1.18.58,1.21,2.15,1.23,3v0H54.13Z" fill="#fff"/><path d="M69.35,41.68a4.28,4.28,0,0,0,3.13,2.79,9.09,9.09,0,0,0,2,.24A5.75,5.75,0,0,0,77.34,44a4.4,4.4,0,0,0,2-3.15c-.45,0-.87,0-1.2,0H77a2,2,0,0,1-1.47,1.55,4.2,4.2,0,0,1-1.1.14,2.81,2.81,0,0,1-2.33-1,4.62,4.62,0,0,1-.61-2.9v-.34h8v-.39a9.15,9.15,0,0,0-.8-4.73,4.26,4.26,0,0,0-3.24-2,8.33,8.33,0,0,0-1.1-.07,5.52,5.52,0,0,0-3.86,1.35,6,6,0,0,0-1.55,4.41c0,.37,0,.76,0,1.12a10,10,0,0,0,.41,3.69m2.07-5.37a3.15,3.15,0,0,1,1.19-2.83,3.43,3.43,0,0,1,1.7-.43,4,4,0,0,1,1.44.28c1.18.57,1.21,2.14,1.23,3v0H71.42Z" fill="#fff"/><path d="M127.26,42.41a4.54,4.54,0,0,1-1.15.15,2.85,2.85,0,0,1-2.21-.89,4.48,4.48,0,0,1-.68-3v-.33h8v-.41a9.28,9.28,0,0,0-.8-4.69,4.18,4.18,0,0,0-3.23-2,10.34,10.34,0,0,0-1.11-.07,5.47,5.47,0,0,0-3.86,1.36,6,6,0,0,0-1.55,4.4c0,.37,0,.75,0,1.11a11,11,0,0,0,.35,3.53,4.28,4.28,0,0,0,3.08,2.93,9,9,0,0,0,2.13.27A5.76,5.76,0,0,0,129,44.1a4.23,4.23,0,0,0,2.08-3.23h-2.34a2,2,0,0,1-1.46,1.54m-4.06-6.1c0-1.44.41-2.36,1.19-2.83a3.46,3.46,0,0,1,1.7-.43,3.78,3.78,0,0,1,1.42.28c1.19.57,1.22,2.14,1.24,3v0H123.2Z" fill="#fff"/><path d="M143.71,31.29h-2.47v.26c0,2,0,2.86-1.6,6.72L138,41.92l-1.65-3.65c-1.61-3.86-1.61-4.7-1.61-6.72v-.26h-2.47a14.09,14.09,0,0,0,1.59,7.31c1.19,2.63,1.6,3.48,2.85,5.91h2.58c1.26-2.43,1.67-3.28,2.86-5.91a14.09,14.09,0,0,0,1.59-7.31" fill="#fff"/><path d="M53.49,54.66a30.23,30.23,0,0,1-.6,3.4s1.68-3.26,4-4.47a4.11,4.11,0,0,1,1.87-.48,1.75,1.75,0,0,1,1.92,2,3.18,3.18,0,0,1,0,.59c-.45,3.23-4.31,6-5.87,6.19-1,.11-1.33-.68-1.11-1.19.14-.31.37-.37.51-.25s-.16.55.07.66,1.86.17,4-2.28a7,7,0,0,0,1.68-3.93,1.13,1.13,0,0,0-.24-.82,1.18,1.18,0,0,0-.83-.31,5.7,5.7,0,0,0-3.51,2C52.94,58.22,51.1,63.42,51,64s-1,.39-.8-.69a14.87,14.87,0,0,1,1.28-3,44.47,44.47,0,0,0,1.17-4.54,9.28,9.28,0,0,0,.12-1.25c0-.68-.19-1-.74-1-.29,0-.48-.21.1-.36.34-.09,1.46-.24,1.33,1.43" fill="#fff"/><path d="M65.77,56.51c.21.32-.06.57-.32.67s-.78.11-.83-.35a.55.55,0,0,1,.51-.59c.39,0,.51.07.64.27m-1.6-.66c.21.32-.07.65-.34.75s-.82.06-.87-.41a.7.7,0,0,1,.53-.61c.41,0,.56.08.68.27m-3.1,7.69a1.1,1.1,0,0,1-.56.17c-.49,0-.92-.45-.9-1.24,0-1,2-3.59,2.2-4.47.07-.42.66.15.5.77-.09.29-2.84,3.92-1.85,4.22.68.23,4.17-4.11,4.72-4.59s.85.3.62.73a10.84,10.84,0,0,0-1.22,3.41c0,.27.09.45.28.45.83,0,3.37-2.74,3.67-3.19s.71-.31.43.15-3.25,4-4.48,3.68c-.42-.1-.56-.5-.56-1a9.37,9.37,0,0,1,1-3.2,30.32,30.32,0,0,1-3.87,4.09" fill="#fff"/><path d="M69.61,59.7c0,.67.33,1.33.33,2a1.68,1.68,0,0,1-.19.8,10.06,10.06,0,0,0,3.09-2.76c.27-.34.7-.28.3.27a11.2,11.2,0,0,1-3.39,3.11,1.54,1.54,0,0,1-.83.91.7.7,0,0,1-1-.74c.15-.32.65-.31,1.25-.5a1.78,1.78,0,0,0,.21-.88,17.64,17.64,0,0,0-.38-2c-.46.65-1.15,1.33-1.29,1.51s-.6,0-.31-.32A14.45,14.45,0,0,0,69,59l0-.07a3.18,3.18,0,0,1,.47-1c.33-.44.85-.21.67.09a3.09,3.09,0,0,0-.59,1.66" fill="#fff"/><path d="M74.92,56.5a.81.81,0,0,1-.7.68c-.26,0-.42-.1-.42-.38s.13-.66.35-.75.79,0,.77.45m-1.19,2.91c-.14.64-1.65,3.21-1,3.6s3.5-2.69,4-3.29c.32-.42.56-.12.28.28s-3.14,4.13-4.61,3.71c-.33-.1-.46-.4-.46-.81,0-1.21,1.13-3.4,1.26-3.86s.67.05.6.37" fill="#fff"/><path d="M76,62.9S79,59,80.17,58.35c.44-.24,1.08.3.94.94-.21,1-.43,2.23-.55,2.8a14.24,14.24,0,0,1,3.4-3.3c.32-.14,1.09.14.92.8-.21.89-1.41,2.9-.68,3.21.89.37,3.47-2.61,3.81-3.08.21-.31.59-.2.32.23-.47.73-3,3.86-4.38,3.36a.81.81,0,0,1-.53-.85c0-1.05,1-2.67.8-3-.33-.54-3.18,2.79-3.36,3.2a.93.93,0,0,1-.76.48c-.27,0-.46-.19-.34-.76.28-1.25,1-3.44.66-3.44-.68,0-3.76,3.85-4.1,4.46s-1.08-.06-1-.53c.18-.78,1.5-3.18,1.5-4,0-.36.6-.38.64.12A28.3,28.3,0,0,1,76,62.9" fill="#fff"/><path d="M88.33,60.48c.55.11,2.61-1.39,2.43-1.82-.15-.26-1.33.27-2.24,1.22a3.46,3.46,0,0,0-1,2.26c0,.53.19.92.55,1,1.23.14,3.93-2.28,4.6-3.33.29-.45.72-.23.36.27-.77,1.08-2.68,3.2-4.38,3.61a1.41,1.41,0,0,1-1.78-1.53,3,3,0,0,1,.29-1.23A5,5,0,0,1,90.33,58a.78.78,0,0,1,1,.73,1.16,1.16,0,0,1-.14.52A5.13,5.13,0,0,1,88.61,61c-.54.07-.67-.65-.28-.54" fill="#fff"/><path d="M102.94,56.51c.22.32-.06.57-.32.67s-.77.11-.83-.35a.57.57,0,0,1,.52-.59c.39,0,.5.07.63.27m-1.59-.66c.21.32-.07.65-.34.75s-.82.06-.87-.41a.69.69,0,0,1,.54-.61c.4,0,.54.08.67.27m-3.11,7.69a1.07,1.07,0,0,1-.55.17c-.5,0-.92-.45-.91-1.24,0-1,2-3.59,2.21-4.47.07-.42.65.15.49.77-.09.29-2.83,3.92-1.84,4.22.67.23,4.17-4.11,4.72-4.59s.86.3.62.73a10.84,10.84,0,0,0-1.22,3.41c0,.27.09.45.28.45.83,0,3.37-2.74,3.67-3.19s.71-.31.43.15-3.26,4-4.47,3.68c-.43-.1-.57-.5-.57-1a9.43,9.43,0,0,1,1-3.2s-2.73,3.4-3.87,4.09" fill="#fff"/><path d="M105.3,62.16s2.2-3.35,3.41-3.76a.74.74,0,0,1,1,.85c-.16.5-1.2,3.53-.64,3.71s3.18-2.3,3.87-3.21c.37-.5.58-.11.33.24-.49.67-3.08,4-4.5,3.64-.35-.09-.5-.44-.5-.91,0-1.33,1-3.66.72-3.73-.7-.17-3.75,4-4.1,4.64-.2.36-.92.2-.68-.3s3.78-8.89,4.19-9.39.6.52.48.9c-.26.76-1.58,3.11-2.24,4.36Z" fill="#fff"/><path d="M113.23,60.48c.56.11,2.61-1.39,2.44-1.82-.15-.26-1.34.27-2.24,1.22a3.43,3.43,0,0,0-1,2.26c0,.53.19.92.55,1,1.24.14,3.93-2.28,4.61-3.33.28-.45.71-.23.35.27-.77,1.08-2.68,3.2-4.38,3.61a1.41,1.41,0,0,1-1.78-1.53,3.21,3.21,0,0,1,.29-1.23A5.05,5.05,0,0,1,115.23,58a.77.77,0,0,1,1,.73,1.16,1.16,0,0,1-.14.52A5.08,5.08,0,0,1,113.51,61c-.54.07-.67-.65-.28-.54" fill="#fff"/><path d="M117.1,62.67s2.61-4,3.88-4.41a.76.76,0,0,1,1,.9,17,17,0,0,0-1.06,3.19c0,.23.07.41.25.45,1,.24,3.23-2,3.92-3,.36-.5.62-.2.39.14-.51.75-2.75,3.7-4.54,3.4-.46-.07-.62-.41-.62-.86,0-1.3,1.36-3.59,1-3.66-.71-.13-3.77,4-4.08,4.64-.2.36-1-.07-.8-.65.16-.36.83-2.1,1.28-3.16a3.78,3.78,0,0,0,.28-.82.24.24,0,0,1,.34-.19.36.36,0,0,1,.19.41c-.07.41-1.38,3.63-1.38,3.63" fill="#fff"/><path d="M128.38,59.55s0,0,0,0c.23-.44.14-1-.25-1a2.23,2.23,0,0,0-1.79.84,5.82,5.82,0,0,0-2,3.1c-.11.69.31.82.76.55a18.24,18.24,0,0,0,3.28-3.44m0,2.78c0,.29.07.5.26.55.73.24,3.29-2.63,3.69-3.18s.59-.1.37.25-3,3.61-4,3.68c-.7.06-.92-.44-.92-1.12a6.66,6.66,0,0,1,.31-1.78,10.26,10.26,0,0,1-2.7,2.69,1.88,1.88,0,0,1-.87.29c-.57,0-.89-.49-.82-1.22.19-2,2.88-4.42,4.17-4.56.41,0,1,0,1.12.47.83-1.86,2-4.22,2.29-4.61s.53,0,.53.53a1.58,1.58,0,0,1-.1.6A20.18,20.18,0,0,1,130,57.7s-1.63,3.28-1.63,4.63" fill="#fff"/><path d="M132.46,63.54a1.07,1.07,0,0,1-.55.17c-.5,0-.92-.45-.9-1.24,0-1,2-3.59,2.2-4.47.07-.42.65.15.49.77-.09.29-2.84,3.92-1.84,4.22.66.23,4.16-4.11,4.71-4.59s.85.3.62.73A11.09,11.09,0,0,0,136,62.54c0,.27.09.45.28.45.84,0,3.38-2.74,3.68-3.19s.7-.31.42.15-3.24,4-4.47,3.68c-.42-.1-.57-.5-.57-1a9.37,9.37,0,0,1,1-3.2s-2.74,3.4-3.87,4.09" fill="#fff"/><path d="M141,59.7c0,.67.32,1.33.32,2a1.79,1.79,0,0,1-.18.8,10.06,10.06,0,0,0,3.09-2.76c.27-.34.68-.28.3.27a11.33,11.33,0,0,1-3.39,3.11,1.58,1.58,0,0,1-.83.91.71.71,0,0,1-1-.74c.15-.32.64-.31,1.25-.5a1.78,1.78,0,0,0,.21-.88,17.66,17.66,0,0,0-.37-2,19.71,19.71,0,0,1-1.3,1.51c-.17.21-.6,0-.3-.32A14.39,14.39,0,0,0,140.42,59l0-.07a3.14,3.14,0,0,1,.45-1c.34-.44.86-.21.69.09A3,3,0,0,0,141,59.7" fill="#fff"/><path d="M144.56,60.48c.54.11,2.6-1.39,2.43-1.82-.14-.26-1.34.27-2.24,1.22a3.47,3.47,0,0,0-1,2.26c0,.53.2.92.55,1,1.24.14,3.94-2.28,4.61-3.33.29-.45.71-.23.36.27-.76,1.08-2.68,3.2-4.39,3.61a1.4,1.4,0,0,1-1.77-1.53,3.18,3.18,0,0,1,.28-1.23A5,5,0,0,1,146.56,58a.78.78,0,0,1,1,.73,1.31,1.31,0,0,1-.14.52A5.08,5.08,0,0,1,144.84,61c-.55.07-.68-.65-.28-.54" fill="#fff"/><path d="M150,59.7c0,.67.32,1.33.32,2a1.79,1.79,0,0,1-.18.8,9.94,9.94,0,0,0,3.08-2.76c.27-.34.7-.28.31.27a11.45,11.45,0,0,1-3.39,3.11,1.58,1.58,0,0,1-.83.91.71.71,0,0,1-1-.74c.14-.32.64-.31,1.24-.5a1.69,1.69,0,0,0,.22-.88,17.66,17.66,0,0,0-.37-2,19.71,19.71,0,0,1-1.3,1.51c-.18.21-.6,0-.3-.32A15.13,15.13,0,0,0,149.45,59l0-.07a2.78,2.78,0,0,1,.46-1c.34-.44.85-.21.67.09A3.09,3.09,0,0,0,150,59.7" fill="#fff"/></svg>