<svg xmlns="http://www.w3.org/2000/svg" xmlns:xlink="http://www.w3.org/1999/xlink" width="119.88" height="39.22" viewBox="0 0 119.88 39.22"><defs><clipPath id="a"><path d="M26,17.26l-5.4-3.12-10.43-6C9.57,7.79,9,8,9,8.69V33.22c0,.52.41.74.92.46s10.67-6.16,10.67-6.16L26,24.4l5.2-3c.61-.36.55-.84,0-1.12S26,17.26,26,17.26Z" fill="none"/></clipPath><linearGradient id="b" x1="15.69" y1="7.55" x2="15.69" y2="34.11" gradientUnits="userSpaceOnUse"><stop offset="0" stop-color="#1a79b0"/><stop offset="0.34" stop-color="#499ab5"/><stop offset="0.79" stop-color="#80c0bc"/><stop offset="1" stop-color="#96cfbe"/></linearGradient><linearGradient id="c" x1="8.99" y1="14.14" x2="25.98" y2="14.14" gradientUnits="userSpaceOnUse"><stop offset="0" stop-color="#57baa9"/><stop offset="1" stop-color="#e6e899"/></linearGradient><linearGradient id="d" x1="17.49" y1="20.83" x2="17.49" y2="34.2" gradientUnits="userSpaceOnUse"><stop offset="0" stop-color="#e4302f"/><stop offset="0.19" stop-color="#d23343"/><stop offset="0.73" stop-color="#a03c7a"/><stop offset="1" stop-color="#8d3f90"/></linearGradient><linearGradient id="e" x1="27.27" y1="17.26" x2="27.27" y2="24.4" gradientUnits="userSpaceOnUse"><stop offset="0" stop-color="#f08679"/><stop offset="0.64" stop-color="#f8b474"/><stop offset="1" stop-color="#fcca71"/></linearGradient></defs><title>google_play</title><rect width="119.88" height="39.22" rx="5.3" fill="#181716"/><g clip-path="url(#a)"><polygon points="8.99 7.55 8.99 20.83 8.99 34.11 22.38 20.83 8.99 7.55" fill="url(#b)"/><polygon points="25.98 17.26 20.57 14.14 8.99 7.45 8.99 7.55 22.38 20.83 25.98 17.26" fill="url(#c)"/><polygon points="8.99 34.11 8.99 34.2 20.57 27.52 25.98 24.4 22.38 20.83 8.99 34.11" fill="url(#d)"/><polygon points="25.98 17.26 22.38 20.83 25.98 24.4 32.16 20.83 25.98 17.26" fill="url(#e)"/></g><path d="M93.3,26a3.31,3.31,0,0,1-1.38-.28,2.58,2.58,0,0,1-1-.85h-.09a9.63,9.63,0,0,1,.09,1.28v3.18H89.71V18.16h1l.16,1.05h.06a2.65,2.65,0,0,1,1.05-.91A3.14,3.14,0,0,1,93.3,18a2.87,2.87,0,0,1,2.37,1.06A4.57,4.57,0,0,1,96.51,22a4.66,4.66,0,0,1-.85,3A2.87,2.87,0,0,1,93.3,26Zm-.17-7a2.08,2.08,0,0,0-1.71.65,3.42,3.42,0,0,0-.54,2.09V22a3.88,3.88,0,0,0,.54,2.33,2.05,2.05,0,0,0,1.74.7,1.81,1.81,0,0,0,1.57-.81A3.81,3.81,0,0,0,95.29,22a3.68,3.68,0,0,0-.56-2.22A1.88,1.88,0,0,0,93.13,19Z" fill="#f9f9f9"/><path d="M99.22,25.88H98v-11h1.18Z" fill="#f9f9f9"/><path d="M105.94,25.88l-.23-1.1h-.06a3.24,3.24,0,0,1-1.15,1,3.53,3.53,0,0,1-1.44.26,2.62,2.62,0,0,1-1.8-.59,2.19,2.19,0,0,1-.65-1.69c0-1.56,1.25-2.37,3.74-2.45l1.32,0v-.48a2,2,0,0,0-.4-1.34A1.59,1.59,0,0,0,104,19a5,5,0,0,0-2.18.6l-.36-.9a5.07,5.07,0,0,1,1.25-.48,5.3,5.3,0,0,1,1.36-.18,2.94,2.94,0,0,1,2,.61,2.59,2.59,0,0,1,.67,2v5.27Zm-2.64-.83a2.34,2.34,0,0,0,1.71-.59,2.21,2.21,0,0,0,.63-1.68v-.7l-1.17.05a4.29,4.29,0,0,0-2,.43,1.31,1.31,0,0,0-.62,1.2,1.21,1.21,0,0,0,.38,1A1.62,1.62,0,0,0,103.3,25.05Z" fill="#f9f9f9"/><path d="M107.49,18.16h1.25l1.69,4.4a17.08,17.08,0,0,1,.69,2.18h.06c.06-.24.19-.65.38-1.23s.83-2.37,1.92-5.35h1.25L111.41,27a4.36,4.36,0,0,1-1.15,1.85,2.48,2.48,0,0,1-1.62.55,4.72,4.72,0,0,1-1.06-.12v-.94a3.9,3.9,0,0,0,.87.08A1.79,1.79,0,0,0,110.17,27l.43-1.1Z" fill="#f9f9f9"/><path d="M71.63,18.87a2.63,2.63,0,0,1-.21,4.48,1.14,1.14,0,0,0-.45.79.89.89,0,0,0,.42.7l.58.45a2.79,2.79,0,0,1,1.36,2.26c0,1.52-1.47,3.05-4.25,3.05-2.34,0-3.48-1.11-3.48-2.31a2.35,2.35,0,0,1,1.25-2,7,7,0,0,1,3.08-.74,1.73,1.73,0,0,1-.48-1.1,1.42,1.42,0,0,1,.16-.63l-.52,0a2.56,2.56,0,0,1-2.68-2.54,2.89,2.89,0,0,1,1-2.16,4.4,4.4,0,0,1,2.89-.89h3.33l-1,.58Zm-1.15,7.18a2.12,2.12,0,0,0-.37,0,6.27,6.27,0,0,0-1.69.26A1.8,1.8,0,0,0,67,28c0,1.15,1.11,2,2.84,2,1.55,0,2.38-.74,2.38-1.74C72.25,27.35,71.71,26.92,70.48,26.05ZM71,23a1.66,1.66,0,0,0,.41-1.18c0-1.17-.7-3-2-3a1.48,1.48,0,0,0-1.13.53,1.88,1.88,0,0,0-.36,1.19c0,1.09.63,2.88,2,2.88A1.69,1.69,0,0,0,71,23Z" fill="#f9f9f9"/><path d="M61.46,25.79A3.8,3.8,0,0,1,57.53,22a4,4,0,0,1,4.17-3.92,3.78,3.78,0,0,1,3.86,3.81A4,4,0,0,1,61.46,25.79Zm2-1.31A3,3,0,0,0,64,22.69c0-1.42-.68-4.13-2.68-4.13a2.25,2.25,0,0,0-1.45.55,2.43,2.43,0,0,0-.74,2c0,1.59.79,4.22,2.74,4.22A2.06,2.06,0,0,0,63.48,24.48Z" fill="#f9f9f9"/><path d="M52.72,25.79A3.81,3.81,0,0,1,48.78,22,4,4,0,0,1,53,18.06a3.78,3.78,0,0,1,3.86,3.81A4,4,0,0,1,52.72,25.79Zm2-1.31a3,3,0,0,0,.48-1.79c0-1.42-.68-4.13-2.68-4.13a2.25,2.25,0,0,0-1.45.55,2.43,2.43,0,0,0-.74,2c0,1.59.79,4.22,2.74,4.22A2.07,2.07,0,0,0,54.74,24.48Z" fill="#f9f9f9"/><path d="M47.55,25.53l-2.32.54a16.67,16.67,0,0,1-2.67.27,5.76,5.76,0,0,1-6.18-5.87c0-3.14,2.42-6.06,6.55-6.06a9.35,9.35,0,0,1,2.48.34,6.16,6.16,0,0,1,2.14,1L46.21,17l-.57.13.4-.65A4.6,4.6,0,0,0,42.57,15a4.47,4.47,0,0,0-4.49,4.78,5.74,5.74,0,0,0,5.74,5.92,4.75,4.75,0,0,0,2.06-.41V22.68l-2.45.13,1.3-.7h3.44l-.42.41a.4.4,0,0,0-.17.26c0,.14,0,.61,0,.78Z" fill="#f9f9f9"/><path d="M76.76,25.07c-.54-.05-.65-.15-.65-.78V15.11a.34.34,0,0,1,0-.1c.06-.57.22-.67.73-1H74.53l-1.22.58h1.24v10c0,.32-.06.37-.44.85H77l.6-.35Z" fill="#f9f9f9"/><path d="M83.35,25.22c-.17.09-.35.21-.53.29a3.75,3.75,0,0,1-1.56.3,3.41,3.41,0,0,1-2.14-.63,4.16,4.16,0,0,1-1.64-3.39,3.65,3.65,0,0,1,3.68-3.72,3.09,3.09,0,0,1,1.66.45A2.64,2.64,0,0,1,84,20.11l-3.78,1.53-1.24.1c.4,2,1.78,3.23,3.31,3.23a4.24,4.24,0,0,0,2-.56Zm-1.51-4.8c.31-.11.47-.21.47-.44a1.6,1.6,0,0,0-1.6-1.38,2,2,0,0,0-1.85,2.24c0,.27,0,.56,0,.85Z" fill="#f9f9f9"/><path d="M84.91,18.18v1.06h-.13V18.18h-.35v-.11h.83v.11Z" fill="#f9f9f9"/><path d="M86.36,19.24V18.17h0L86,19.24h-.1l-.33-1.07h0v1.07h-.12V18.07h.2L86,19h0l.3-.94h.2v1.17Z" fill="#f9f9f9"/><path d="M39.6,11.25h-.8a5.75,5.75,0,0,0-.23-.94H37.4a5.51,5.51,0,0,0-.23.94h-.76A16.06,16.06,0,0,1,37,9.64,12.48,12.48,0,0,0,37.58,8h1a13,13,0,0,0,.53,1.64A15.59,15.59,0,0,1,39.6,11.25ZM38.44,9.83A13.7,13.7,0,0,1,38,8.43h0c0,.06-.15.53-.45,1.4Z" fill="#fbfcfc"/><path d="M42.85,11.25h-.62a5.94,5.94,0,0,0-.7-1.09,5.63,5.63,0,0,1-.82-1.42h0a9.34,9.34,0,0,1,.06,1c0,.41,0,.92,0,1.51h-.61q0-.78,0-1.71t0-1.56h.74A5,5,0,0,0,41.52,9a6.71,6.71,0,0,1,.76,1.34h0a9.49,9.49,0,0,1-.06-1c0-.46,0-.93,0-1.4h.63c0,.41,0,.94,0,1.56S42.82,10.74,42.85,11.25Z" fill="#fbfcfc"/><path d="M46.5,9.5A1.89,1.89,0,0,1,46,10.75a1.6,1.6,0,0,1-1.29.54l-1,0q0-.75,0-1.71t0-1.56h1a1.71,1.71,0,0,1,1.32.45A1.61,1.61,0,0,1,46.5,9.5Zm-.69.11a1.19,1.19,0,0,0-.28-.81,1.05,1.05,0,0,0-.86-.34l-.3,0c0,.33,0,.68,0,1s0,.8,0,1.19a1.86,1.86,0,0,0,.33,0,1,1,0,0,0,.8-.34A1.32,1.32,0,0,0,45.81,9.61Z" fill="#fbfcfc"/><path d="M49.86,11.25h-.74a5.57,5.57,0,0,0-.45-1.1.59.59,0,0,0-.51-.2h-.27c0,.43,0,.87,0,1.3h-.7q0-.75,0-1.71t0-1.56H48.4c.77,0,1.16.26,1.16.79a.88.88,0,0,1-.66.87v0a.81.81,0,0,1,.45.4A9,9,0,0,1,49.86,11.25Zm-.94-2.31c0-.34-.22-.5-.65-.5a2.54,2.54,0,0,0-.41,0c0,.26,0,.6,0,1h.24C48.65,9.49,48.92,9.31,48.92,8.94Z" fill="#fbfcfc"/><path d="M53.47,9.55A1.84,1.84,0,0,1,53,10.84a1.54,1.54,0,0,1-1.17.5,1.49,1.49,0,0,1-1.12-.46,1.68,1.68,0,0,1-.44-1.19,1.79,1.79,0,0,1,.47-1.28,1.52,1.52,0,0,1,1.17-.51A1.49,1.49,0,0,1,53,8.37,1.62,1.62,0,0,1,53.47,9.55Zm-.69.08a1.32,1.32,0,0,0-.27-.86.85.85,0,0,0-.67-.32.77.77,0,0,0-.62.33,1.31,1.31,0,0,0-.26.83,1.29,1.29,0,0,0,.27.85.82.82,0,0,0,.66.33.77.77,0,0,0,.63-.33A1.33,1.33,0,0,0,52.78,9.63Z" fill="#fbfcfc"/><path d="M54.89,11.25h-.71q0-.78,0-1.71t0-1.56h.71q0,.63,0,1.56T54.89,11.25Z" fill="#fbfcfc"/><path d="M58.54,9.5a1.88,1.88,0,0,1-.45,1.25,1.61,1.61,0,0,1-1.29.54l-1,0c0-.5,0-1.07,0-1.71s0-1.13,0-1.56h1a1.69,1.69,0,0,1,1.31.45A1.56,1.56,0,0,1,58.54,9.5Zm-.68.11a1.2,1.2,0,0,0-.29-.81,1,1,0,0,0-.86-.34l-.29,0c0,.33,0,.68,0,1s0,.8,0,1.19a1.75,1.75,0,0,0,.32,0,1,1,0,0,0,.81-.34A1.32,1.32,0,0,0,57.86,9.61Z" fill="#fbfcfc"/><path d="M63.38,11.25h-.8a5.75,5.75,0,0,0-.23-.94H61.19a5,5,0,0,0-.24.94h-.76c0-.06.2-.6.59-1.61A13.59,13.59,0,0,0,61.37,8h1a15.28,15.28,0,0,0,.53,1.64A13.14,13.14,0,0,1,63.38,11.25ZM62.22,9.83a13.7,13.7,0,0,1-.43-1.4h0c0,.06-.15.53-.44,1.4Z" fill="#fbfcfc"/><path d="M66.32,8.84a1,1,0,0,1-.45.88,1.89,1.89,0,0,1-1.09.29h-.17c0,.32,0,.74,0,1.25h-.71q0-.72,0-1.71c0-.6,0-1.13,0-1.56h1.26a1.39,1.39,0,0,1,.8.22A.73.73,0,0,1,66.32,8.84ZM65.67,9c0-.36-.24-.54-.71-.54a2.58,2.58,0,0,0-.38,0q0,.48,0,1.08h.14C65.37,9.55,65.67,9.36,65.67,9Z" fill="#fbfcfc"/><path d="M69.34,8.84a1,1,0,0,1-.44.88,1.94,1.94,0,0,1-1.1.29h-.17c0,.32,0,.74,0,1.25H67q0-.72,0-1.71c0-.6,0-1.13,0-1.56H68.2a1.4,1.4,0,0,1,.81.22A.73.73,0,0,1,69.34,8.84ZM68.69,9c0-.36-.24-.54-.71-.54a2.58,2.58,0,0,0-.38,0q0,.48,0,1.08h.14C68.39,9.55,68.69,9.36,68.69,9Z" fill="#fbfcfc"/><path d="M74.28,9.55a1.84,1.84,0,0,1-.47,1.29,1.54,1.54,0,0,1-1.17.5,1.49,1.49,0,0,1-1.12-.46,1.65,1.65,0,0,1-.45-1.19,1.8,1.8,0,0,1,.48-1.28,1.52,1.52,0,0,1,1.17-.51,1.49,1.49,0,0,1,1.11.47A1.62,1.62,0,0,1,74.28,9.55Zm-.7.08a1.38,1.38,0,0,0-.26-.86.86.86,0,0,0-.67-.32.77.77,0,0,0-.62.33,1.25,1.25,0,0,0-.26.83,1.29,1.29,0,0,0,.27.85.82.82,0,0,0,.66.33.77.77,0,0,0,.63-.33A1.32,1.32,0,0,0,73.58,9.63Z" fill="#fbfcfc"/><path d="M77.69,11.25h-.62a6.19,6.19,0,0,0-.69-1.09,5.79,5.79,0,0,1-.83-1.42h0a9.54,9.54,0,0,1,.07,1c0,.41,0,.92,0,1.51H75c0-.52,0-1.09,0-1.71S75,8.41,75,8h.75A5.16,5.16,0,0,0,76.36,9a6.21,6.21,0,0,1,.76,1.34h0a9.49,9.49,0,0,1-.06-1c0-.46,0-.93,0-1.4h.63c0,.41,0,.94,0,1.56S77.67,10.74,77.69,11.25Z" fill="#fbfcfc"/></svg>