<svg xmlns="http://www.w3.org/2000/svg" width="99.21" height="44.73" viewBox="0 0 99.21 44.73"><title>rmk</title><path d="M73.24,21.45l-5.6-8h-5v19h3.84V18.31l6.73,9.15L80,18.31V32.45h3.84v-19h-5Zm-25.77,11H43.62v-19h9.29c3.89,0,7.08,1.34,7.08,5.72a5.85,5.85,0,0,1-3.94,5.47l5.08,7.78H58.67a3.63,3.63,0,0,1-3.14-1.78l-5-8.29a.32.32,0,0,1,.28-.51l1.7-.08c1.74-.07,3.52-.28,3.52-2.54s-1.75-2.37-3.57-2.37h-5Zm38.5-10,7.24-9H98l-7.54,9.28,8.79,9.69H95.84a3.55,3.55,0,0,1-2.57-1.06L86,23.19a.53.53,0,0,1,0-.75" fill="#fff"/><path d="M23.25,44.73V37.14a6.86,6.86,0,0,0-7.07-7.07H8L17.35,13.2H11.66L19.39,0H14L3.52,17.84H9.35L0,34.83H16a2.5,2.5,0,0,1,2.5,2.49v7.41Z" fill="#fff"/><path d="M35.63,44.73V35.36c0-3.23-1.25-5.59-3.3-8.06a19.93,19.93,0,0,1-4.86-12.39A20.53,20.53,0,0,1,34.25,0H28a23.33,23.33,0,0,0-5.4,15,23.05,23.05,0,0,0,5,14.16c1.7,2.17,3.29,3.43,3.29,6.34v9.2Z" fill="#fff"/></svg>