<svg xmlns="http://www.w3.org/2000/svg" width="1309.63" height="1266.39" viewBox="0 0 1309.63 1266.39"><title>Asset 3</title><polygon points="191.25 1216.93 215.4 1216.93 203.33 1241.39 191.25 1265.84 179.18 1241.39 167.11 1216.93 191.25 1216.93" fill="#202d7c" opacity="0.4"/><polygon points="215.4 1021.5 263.63 1021.5 239.52 1070.33 215.4 1119.16 191.29 1070.33 167.17 1021.5 215.4 1021.5" fill="#202d7c" opacity="0.4"/><polygon points="151.18 923.86 119.06 923.86 135.11 891.34 151.18 858.84 167.23 891.34 183.29 923.86 151.18 923.86" fill="#202d7c" opacity="0.4"/><polygon points="118.83 1021.5 167.05 1021.5 142.94 1070.33 118.83 1119.16 94.72 1070.33 70.6 1021.5 118.83 1021.5" fill="#202d7c"/><polygon points="215.28 1021.5 167.05 1021.5 191.17 972.68 215.28 923.86 239.4 972.68 263.51 1021.5 215.28 1021.5" fill="#202d7c" opacity="0.7"/><polygon points="215.41 793.82 183.29 793.82 199.35 761.3 215.41 728.79 231.46 761.3 247.51 793.82 215.41 793.82" fill="none" stroke="#00aae7" stroke-linecap="round" stroke-linejoin="round" stroke-width="1.08"/><polygon points="215.41 793.82 247.51 793.82 231.46 826.33 215.41 858.84 199.35 826.33 183.29 793.82 215.41 793.82" fill="none" stroke="#00aae7" stroke-linecap="round" stroke-linejoin="round" stroke-width="1.08"/><polygon points="183.29 858.84 151.18 858.84 167.23 826.33 183.29 793.82 199.34 826.33 215.41 858.84 183.29 858.84" fill="none" stroke="#00aae7" stroke-linecap="round" stroke-linejoin="round" stroke-width="1.08"/><polygon points="183.29 858.84 215.41 858.84 199.35 891.34 183.29 923.86 167.23 891.34 151.18 858.84 183.29 858.84" fill="none" stroke="#00aae7" stroke-linecap="round" stroke-linejoin="round" stroke-width="1.08"/><polygon points="247.51 858.84 215.41 858.84 231.46 826.33 247.51 793.82 263.57 826.33 279.63 858.84 247.51 858.84" fill="none" stroke="#00aae7" stroke-linecap="round" stroke-linejoin="round" stroke-width="1.08"/><polygon points="279.63 923.86 247.51 923.86 263.58 891.34 279.63 858.84 295.69 891.34 311.75 923.86 279.63 923.86" fill="none" stroke="#00aae7" stroke-linecap="round" stroke-linejoin="round" stroke-width="1.08"/><polygon points="215.41 923.86 183.29 923.86 199.35 891.34 215.41 858.84 231.46 891.34 247.51 923.86 215.41 923.86" fill="none" stroke="#00aae7" stroke-linecap="round" stroke-linejoin="round" stroke-width="1.08"/><polygon points="151.18 923.86 119.06 923.86 135.11 891.34 151.18 858.84 167.23 891.34 183.29 923.86 151.18 923.86" fill="none" stroke="#00aae7" stroke-linecap="round" stroke-linejoin="round" stroke-width="1.08"/><polygon points="247.51 858.84 279.63 858.84 263.57 891.34 247.51 923.86 231.46 891.34 215.41 858.84 247.51 858.84" fill="none" stroke="#00aae7" stroke-linecap="round" stroke-linejoin="round" stroke-width="1.08"/><polygon points="215.4 1168.04 191.25 1168.04 203.33 1143.6 215.4 1119.15 227.48 1143.6 239.55 1168.04 215.4 1168.04" fill="none" stroke="#00aae7" stroke-linecap="round" stroke-linejoin="round" stroke-width="1.1"/><polygon points="215.4 1168.04 239.55 1168.04 227.48 1192.49 215.4 1216.93 203.33 1192.49 191.25 1168.04 215.4 1168.04" fill="none" stroke="#00aae7" stroke-linecap="round" stroke-linejoin="round" stroke-width="1.1"/><polygon points="191.25 1216.93 167.11 1216.93 179.18 1192.49 191.25 1168.04 203.33 1192.49 215.4 1216.93 191.25 1216.93" fill="none" stroke="#00aae7" stroke-linecap="round" stroke-linejoin="round" stroke-width="1.1"/><polygon points="191.25 1216.93 215.4 1216.93 203.33 1241.39 191.25 1265.84 179.18 1241.39 167.11 1216.93 191.25 1216.93" fill="none" stroke="#00aae7" stroke-linecap="round" stroke-linejoin="round" stroke-width="1.1"/><polygon points="239.55 1216.93 215.4 1216.93 227.48 1192.49 239.55 1168.04 251.62 1192.49 263.69 1216.93 239.55 1216.93" fill="#202d7c"/><polygon points="239.55 1216.93 215.4 1216.93 227.48 1192.49 239.55 1168.04 251.62 1192.49 263.69 1216.93 239.55 1216.93" fill="none" stroke="#00aae7" stroke-linecap="round" stroke-linejoin="round" stroke-width="1.1"/><polygon points="263.69 1265.84 239.55 1265.84 251.62 1241.39 263.69 1216.93 275.78 1241.39 287.85 1265.84 263.69 1265.84" fill="none" stroke="#00aae7" stroke-linecap="round" stroke-linejoin="round" stroke-width="1.1"/><polygon points="215.4 1265.84 191.25 1265.84 203.33 1241.39 215.4 1216.93 227.48 1241.39 239.55 1265.84 215.4 1265.84" fill="none" stroke="#00aae7" stroke-linecap="round" stroke-linejoin="round" stroke-width="1.1"/><polygon points="167.11 1265.84 142.95 1265.84 155.03 1241.39 167.11 1216.93 179.18 1241.39 191.25 1265.84 167.11 1265.84" fill="none" stroke="#00aae7" stroke-linecap="round" stroke-linejoin="round" stroke-width="1.1"/><polygon points="239.55 1216.93 263.69 1216.93 251.62 1241.39 239.55 1265.84 227.48 1241.39 215.4 1216.93 239.55 1216.93" fill="none" stroke="#00aae7" stroke-linecap="round" stroke-linejoin="round" stroke-width="1.1"/><polygon points="435.98 959.25 413.45 959.25 424.71 936.45 435.98 913.64 447.24 936.45 458.5 959.25 435.98 959.25" fill="none" stroke="#00aae7" stroke-linecap="round" stroke-linejoin="round" stroke-width="0.54"/><polygon points="435.98 959.25 458.5 959.25 447.24 982.05 435.98 1004.86 424.71 982.05 413.45 959.25 435.98 959.25" fill="none" stroke="#00aae7" stroke-linecap="round" stroke-linejoin="round" stroke-width="0.54"/><polygon points="413.45 1004.86 390.92 1004.86 402.19 982.05 413.45 959.25 424.71 982.05 435.98 1004.86 413.45 1004.86" fill="none" stroke="#00aae7" stroke-linecap="round" stroke-linejoin="round" stroke-width="0.54"/><polygon points="413.45 1004.86 435.98 1004.86 424.71 1027.67 413.45 1050.47 402.19 1027.67 390.92 1004.86 413.45 1004.86" fill="none" stroke="#00aae7" stroke-linecap="round" stroke-linejoin="round" stroke-width="0.54"/><polygon points="458.5 1004.86 435.98 1004.86 447.24 982.05 458.5 959.25 469.76 982.05 481.02 1004.86 458.5 1004.86" fill="none" stroke="#00aae7" stroke-linecap="round" stroke-linejoin="round" stroke-width="0.54"/><polygon points="481.02 1050.47 458.5 1050.47 469.76 1027.67 481.02 1004.86 492.29 1027.67 503.55 1050.47 481.02 1050.47" fill="none" stroke="#00aae7" stroke-linecap="round" stroke-linejoin="round" stroke-width="0.54"/><polygon points="435.98 1050.47 413.45 1050.47 424.71 1027.67 435.98 1004.86 447.24 1027.67 458.5 1050.47 435.98 1050.47" fill="none" stroke="#00aae7" stroke-linecap="round" stroke-linejoin="round" stroke-width="0.54"/><polygon points="390.92 1050.47 368.4 1050.47 379.66 1027.67 390.92 1004.86 402.19 1027.67 413.45 1050.47 390.92 1050.47" fill="none" stroke="#00aae7" stroke-linecap="round" stroke-linejoin="round" stroke-width="0.54"/><polygon points="458.5 1004.86 481.02 1004.86 469.76 1027.67 458.5 1050.47 447.24 1027.67 435.98 1004.86 458.5 1004.86" fill="none" stroke="#00aae7" stroke-linecap="round" stroke-linejoin="round" stroke-width="0.54"/><polygon points="167.05 1119.16 215.28 1119.16 191.17 1167.97 167.05 1216.81 142.94 1167.97 118.83 1119.16 167.05 1119.16" fill="none" stroke="#00aae7" stroke-linecap="round" stroke-linejoin="round" stroke-width="0.54"/><polygon points="167.05 1119.16 118.83 1119.16 142.94 1070.34 167.05 1021.5 191.17 1070.34 215.28 1119.16 167.05 1119.16" fill="none" stroke="#00aae7" stroke-linecap="round" stroke-linejoin="round" stroke-width="0.54"/><polygon points="215.28 1021.5 263.51 1021.5 239.4 1070.33 215.28 1119.16 191.17 1070.33 167.05 1021.5 215.28 1021.5" fill="none" stroke="#00aae7" stroke-linecap="round" stroke-linejoin="round" stroke-width="0.54"/><polygon points="215.28 1021.5 167.05 1021.5 191.17 972.68 215.28 923.86 239.4 972.68 263.51 1021.5 215.28 1021.5" fill="none" stroke="#00aae7" stroke-linecap="round" stroke-linejoin="round" stroke-width="0.54"/><polygon points="118.83 1021.5 167.05 1021.5 142.94 1070.33 118.83 1119.16 94.72 1070.33 70.6 1021.5 118.83 1021.5" fill="none" stroke="#00aae7" stroke-linecap="round" stroke-linejoin="round" stroke-width="0.54"/><polygon points="70.6 923.86 118.83 923.86 94.72 972.68 70.6 1021.5 46.49 972.68 22.37 923.86 70.6 923.86" fill="none" stroke="#00aae7" stroke-linecap="round" stroke-linejoin="round" stroke-width="0.54"/><polygon points="167.05 923.86 215.28 923.86 191.17 972.68 167.05 1021.5 142.94 972.68 118.83 923.86 167.05 923.86" fill="none" stroke="#00aae7" stroke-linecap="round" stroke-linejoin="round" stroke-width="0.54"/><polygon points="263.51 923.86 311.75 923.86 287.63 972.68 263.51 1021.5 239.4 972.68 215.28 923.86 263.51 923.86" fill="none" stroke="#00aae7" stroke-linecap="round" stroke-linejoin="round" stroke-width="0.54"/><polygon points="118.83 1021.5 70.6 1021.5 94.72 972.68 118.83 923.86 142.94 972.68 167.05 1021.5 118.83 1021.5" fill="none" stroke="#00aae7" stroke-linecap="round" stroke-linejoin="round" stroke-width="0.54"/><polygon points="469.44 913.64 502.92 913.64 486.18 947.52 469.44 981.41 452.71 947.52 435.98 913.64 469.44 913.64" fill="none" stroke="#00aae7" stroke-linecap="round" stroke-linejoin="round" stroke-width="0.54"/><polygon points="469.44 913.64 435.98 913.64 452.71 879.76 469.44 845.87 486.18 879.76 502.92 913.64 469.44 913.64" fill="none" stroke="#00aae7" stroke-linecap="round" stroke-linejoin="round" stroke-width="0.54"/><polygon points="502.92 845.87 536.38 845.87 519.65 879.76 502.92 913.64 486.18 879.76 469.44 845.87 502.92 845.87" fill="none" stroke="#00aae7" stroke-linecap="round" stroke-linejoin="round" stroke-width="0.54"/><polygon points="502.92 845.87 469.44 845.87 486.18 811.99 502.92 778.11 519.65 811.99 536.38 845.87 502.92 845.87" fill="none" stroke="#00aae7" stroke-linecap="round" stroke-linejoin="round" stroke-width="0.54"/><polygon points="435.98 845.87 469.44 845.87 452.71 879.76 435.98 913.64 419.24 879.76 402.51 845.87 435.98 845.87" fill="none" stroke="#00aae7" stroke-linecap="round" stroke-linejoin="round" stroke-width="0.54"/><polygon points="402.51 778.11 435.98 778.11 419.24 811.99 402.51 845.87 385.77 811.99 369.03 778.11 402.51 778.11" fill="none" stroke="#00aae7" stroke-linecap="round" stroke-linejoin="round" stroke-width="0.54"/><polygon points="469.44 778.11 502.92 778.11 486.18 811.99 469.44 845.87 452.71 811.99 435.98 778.11 469.44 778.11" fill="none" stroke="#00aae7" stroke-linecap="round" stroke-linejoin="round" stroke-width="0.54"/><polygon points="536.38 778.11 569.85 778.11 553.12 811.99 536.38 845.87 519.65 811.99 502.92 778.11 536.38 778.11" fill="none" stroke="#00aae7" stroke-linecap="round" stroke-linejoin="round" stroke-width="0.54"/><polygon points="435.98 845.87 402.51 845.87 419.24 811.99 435.98 778.11 452.71 811.99 469.44 845.87 435.98 845.87" fill="none" stroke="#00aae7" stroke-linecap="round" stroke-linejoin="round" stroke-width="0.54"/><polygon points="331.54 923.86 311.75 923.86 321.64 903.81 331.54 883.77 341.44 903.81 351.33 923.86 331.54 923.86" fill="none" stroke="#00aae7" stroke-linecap="round" stroke-linejoin="round" stroke-width="0.54"/><polygon points="331.54 923.86 351.33 923.86 341.44 943.9 331.54 963.93 321.64 943.9 311.75 923.86 331.54 923.86" fill="none" stroke="#00aae7" stroke-linecap="round" stroke-linejoin="round" stroke-width="0.54"/><polygon points="311.75 963.93 291.95 963.93 301.85 943.9 311.75 923.86 321.64 943.9 331.54 963.93 311.75 963.93" fill="none" stroke="#00aae7" stroke-linecap="round" stroke-linejoin="round" stroke-width="0.54"/><polygon points="311.75 963.93 331.54 963.93 321.64 983.98 311.75 1004.02 301.85 983.98 291.95 963.93 311.75 963.93" fill="none" stroke="#00aae7" stroke-linecap="round" stroke-linejoin="round" stroke-width="0.54"/><polygon points="351.33 963.93 331.54 963.93 341.44 943.9 351.33 923.86 361.23 943.9 371.13 963.93 351.33 963.93" fill="none" stroke="#00aae7" stroke-linecap="round" stroke-linejoin="round" stroke-width="0.54"/><polygon points="371.13 1004.02 351.33 1004.02 361.23 983.98 371.13 963.93 381.03 983.98 390.92 1004.02 371.13 1004.02" fill="none" stroke="#00aae7" stroke-linecap="round" stroke-linejoin="round" stroke-width="0.54"/><polygon points="331.54 1004.02 311.75 1004.02 321.64 983.98 331.54 963.93 341.44 983.98 351.33 1004.02 331.54 1004.02" fill="none" stroke="#00aae7" stroke-linecap="round" stroke-linejoin="round" stroke-width="0.54"/><polygon points="291.95 1004.02 272.15 1004.02 282.06 983.98 291.95 963.93 301.85 983.98 311.75 1004.02 291.95 1004.02" fill="none" stroke="#00aae7" stroke-linecap="round" stroke-linejoin="round" stroke-width="0.54"/><polygon points="351.33 963.93 371.13 963.93 361.23 983.98 351.33 1004.02 341.44 983.98 331.54 963.93 351.33 963.93" fill="none" stroke="#00aae7" stroke-linecap="round" stroke-linejoin="round" stroke-width="0.54"/><polygon points="923.34 1220.43 912.13 1220.43 917.74 1209.08 923.34 1197.73 928.95 1209.08 934.55 1220.43 923.34 1220.43" fill="none" stroke="#00aae7" stroke-linecap="round" stroke-linejoin="round" stroke-width="0.54"/><polygon points="923.35 1220.43 934.55 1220.43 928.95 1231.79 923.35 1243.14 917.74 1231.79 912.13 1220.43 923.35 1220.43" fill="none" stroke="#00aae7" stroke-linecap="round" stroke-linejoin="round" stroke-width="0.54"/><polygon points="912.13 1243.14 900.92 1243.14 906.53 1231.79 912.13 1220.43 917.74 1231.79 923.34 1243.14 912.13 1243.14" fill="none" stroke="#00aae7" stroke-linecap="round" stroke-linejoin="round" stroke-width="0.54"/><polygon points="912.13 1243.14 923.34 1243.14 917.74 1254.49 912.13 1265.84 906.53 1254.49 900.92 1243.14 912.13 1243.14" fill="none" stroke="#00aae7" stroke-linecap="round" stroke-linejoin="round" stroke-width="0.54"/><polygon points="934.55 1243.14 923.34 1243.14 928.95 1231.79 934.55 1220.43 940.16 1231.79 945.76 1243.14 934.55 1243.14" fill="none" stroke="#00aae7" stroke-linecap="round" stroke-linejoin="round" stroke-width="0.54"/><polygon points="945.76 1265.84 934.55 1265.84 940.16 1254.49 945.76 1243.14 951.37 1254.49 956.98 1265.84 945.76 1265.84" fill="none" stroke="#00aae7" stroke-linecap="round" stroke-linejoin="round" stroke-width="0.54"/><polygon points="923.34 1265.84 912.13 1265.84 917.74 1254.49 923.34 1243.14 928.95 1254.49 934.55 1265.84 923.34 1265.84" fill="none" stroke="#00aae7" stroke-linecap="round" stroke-linejoin="round" stroke-width="0.54"/><polygon points="900.92 1265.84 889.71 1265.84 895.31 1254.49 900.92 1243.14 906.53 1254.49 912.13 1265.84 900.92 1265.84" fill="none" stroke="#00aae7" stroke-linecap="round" stroke-linejoin="round" stroke-width="0.54"/><polygon points="934.55 1243.14 945.76 1243.14 940.16 1254.49 934.55 1265.84 928.95 1254.49 923.34 1243.14 934.55 1243.14" fill="none" stroke="#00aae7" stroke-linecap="round" stroke-linejoin="round" stroke-width="0.54"/><path d="M64.08,666.54a3,3,0,0,0,3.18-2.83,3,3,0,0,0-2.82-3.16,3,3,0,0,0-3.17,2.83,3,3,0,0,0,2.81,3.16" transform="translate(151.14 65.84)" fill="#f5d258"/><path d="M64,1056.31a3,3,0,0,0,3.18-2.83,3,3,0,0,0-2.82-3.16,3,3,0,0,0-3.17,2.83,3,3,0,0,0,2.81,3.16" transform="translate(151.14 65.84)" fill="#f5d258"/><polygon points="1079.51 381.02 1058.61 381.02 1069.06 359.85 1079.51 338.7 1089.96 359.85 1100.42 381.02 1079.51 381.02" fill="#202d7c"/><polygon points="792.89 146.29 763.07 146.29 777.98 116.11 792.89 85.92 807.79 116.11 822.71 146.29 792.89 146.29" fill="#202d7c" opacity="0.7"/><polygon points="113.06 276.44 133.98 276.44 123.52 297.61 113.06 318.79 102.61 297.61 92.15 276.44 113.06 276.44" fill="#202d7c" opacity="0.7"/><polygon points="165.05 191.74 196.13 191.74 180.59 223.2 165.05 254.66 149.51 223.2 133.98 191.74 165.05 191.74" fill="#202d7c" opacity="0.4"/><polygon points="227.74 254.66 165.05 254.66 196.39 191.2 227.74 127.74 259.08 191.2 290.43 254.66 227.74 254.66" fill="#202d7c"/><polygon points="1142.22 338.7 1121.33 338.7 1131.77 317.53 1142.22 296.38 1152.67 317.53 1163.13 338.7 1142.22 338.7" fill="#202d7c" opacity="0.4"/><polygon points="763.07 85.92 733.25 85.92 748.17 55.73 763.07 25.55 777.98 55.73 792.89 85.92 763.07 85.92" fill="none" stroke="#00aae7" stroke-linecap="round" stroke-linejoin="round"/><polygon points="763.07 85.92 792.89 85.92 777.98 116.11 763.07 146.29 748.17 116.11 733.25 85.92 763.07 85.92" fill="none" stroke="#00aae7" stroke-linecap="round" stroke-linejoin="round"/><polygon points="733.25 146.29 703.44 146.29 718.35 116.11 733.25 85.92 748.16 116.11 763.07 146.29 733.25 146.29" fill="none" stroke="#00aae7" stroke-linecap="round" stroke-linejoin="round"/><polygon points="733.25 146.29 763.07 146.29 748.17 176.47 733.25 206.66 718.35 176.47 703.44 146.29 733.25 146.29" fill="none" stroke="#00aae7" stroke-linecap="round" stroke-linejoin="round"/><polygon points="792.89 146.29 763.07 146.29 777.98 116.11 792.89 85.92 807.79 116.11 822.71 146.29 792.89 146.29" fill="none" stroke="#00aae7" stroke-linecap="round" stroke-linejoin="round"/><polygon points="822.71 206.66 792.89 206.66 807.8 176.47 822.71 146.29 837.61 176.47 852.53 206.66 822.71 206.66" fill="none" stroke="#00aae7" stroke-linecap="round" stroke-linejoin="round"/><polygon points="763.07 206.66 733.25 206.66 748.17 176.47 763.07 146.29 777.98 176.47 792.89 206.66 763.07 206.66" fill="none" stroke="#00aae7" stroke-linecap="round" stroke-linejoin="round"/><polygon points="703.44 206.66 673.62 206.66 688.52 176.47 703.44 146.29 718.35 176.47 733.25 206.66 703.44 206.66" fill="none" stroke="#00aae7" stroke-linecap="round" stroke-linejoin="round"/><polygon points="792.89 146.29 822.71 146.29 807.79 176.47 792.89 206.66 777.98 176.47 763.07 146.29 792.89 146.29" fill="none" stroke="#00aae7" stroke-linecap="round" stroke-linejoin="round"/><polygon points="763.07 432.73 741.1 432.73 752.09 410.5 763.07 388.25 774.06 410.5 785.04 432.73 763.07 432.73" fill="none" stroke="#00aae7" stroke-linecap="round" stroke-linejoin="round"/><polygon points="763.07 432.73 785.04 432.73 774.06 454.98 763.07 477.22 752.09 454.98 741.1 432.73 763.07 432.73" fill="none" stroke="#00aae7" stroke-linecap="round" stroke-linejoin="round"/><polygon points="741.1 477.22 719.13 477.22 730.11 454.98 741.1 432.73 752.09 454.98 763.07 477.22 741.1 477.22" fill="none" stroke="#00aae7" stroke-linecap="round" stroke-linejoin="round"/><polygon points="741.1 477.22 763.07 477.22 752.09 499.46 741.1 521.71 730.11 499.46 719.13 477.22 741.1 477.22" fill="none" stroke="#00aae7" stroke-linecap="round" stroke-linejoin="round"/><polygon points="785.04 477.22 763.07 477.22 774.06 454.98 785.04 432.73 796.02 454.98 807.01 477.22 785.04 477.22" fill="none" stroke="#00aae7" stroke-linecap="round" stroke-linejoin="round"/><polygon points="807.01 521.71 785.04 521.71 796.02 499.46 807.01 477.22 818 499.46 828.98 521.71 807.01 521.71" fill="none" stroke="#00aae7" stroke-linecap="round" stroke-linejoin="round"/><polygon points="763.07 521.71 741.1 521.71 752.09 499.46 763.07 477.22 774.06 499.46 785.04 521.71 763.07 521.71" fill="none" stroke="#00aae7" stroke-linecap="round" stroke-linejoin="round"/><polygon points="719.13 521.71 697.15 521.71 708.14 499.46 719.13 477.22 730.11 499.46 741.1 521.71 719.13 521.71" fill="none" stroke="#00aae7" stroke-linecap="round" stroke-linejoin="round"/><polygon points="785.04 477.22 807.01 477.22 796.02 499.46 785.04 521.71 774.06 499.46 763.07 477.22 785.04 477.22" fill="none" stroke="#00aae7" stroke-linecap="round" stroke-linejoin="round"/><polygon points="1121.33 296.38 1100.42 296.38 1110.88 275.21 1121.33 254.04 1131.77 275.21 1142.22 296.38 1121.33 296.38" fill="none" stroke="#00aae7" stroke-linecap="round" stroke-linejoin="round"/><polygon points="1121.33 296.38 1142.22 296.38 1131.78 317.53 1121.33 338.7 1110.88 317.53 1100.42 296.38 1121.33 296.38" fill="none" stroke="#00aae7" stroke-linecap="round" stroke-linejoin="round"/><polygon points="1100.42 338.7 1079.51 338.7 1089.96 317.53 1100.42 296.38 1110.88 317.53 1121.33 338.7 1100.42 338.7" fill="none" stroke="#00aae7" stroke-linecap="round" stroke-linejoin="round"/><polygon points="1100.42 338.7 1121.33 338.7 1110.88 359.85 1100.42 381.02 1089.97 359.85 1079.51 338.7 1100.42 338.7" fill="none" stroke="#00aae7" stroke-linecap="round" stroke-linejoin="round"/><polygon points="1142.22 338.7 1121.33 338.7 1131.77 317.53 1142.22 296.38 1152.67 317.53 1163.13 338.7 1142.22 338.7" fill="none" stroke="#00aae7" stroke-linecap="round" stroke-linejoin="round"/><polygon points="1163.13 381.02 1142.22 381.02 1152.67 359.85 1163.13 338.7 1173.58 359.85 1184.03 381.02 1163.13 381.02" fill="none" stroke="#00aae7" stroke-linecap="round" stroke-linejoin="round"/><polygon points="1121.33 381.02 1100.42 381.02 1110.88 359.85 1121.33 338.7 1131.77 359.85 1142.22 381.02 1121.33 381.02" fill="none" stroke="#00aae7" stroke-linecap="round" stroke-linejoin="round"/><polygon points="1079.51 381.02 1058.61 381.02 1069.06 359.85 1079.51 338.7 1089.96 359.85 1100.42 381.02 1079.51 381.02" fill="none" stroke="#00aae7" stroke-linecap="round" stroke-linejoin="round"/><polygon points="1142.22 338.7 1163.13 338.7 1152.67 359.85 1142.22 381.02 1131.78 359.85 1121.33 338.7 1142.22 338.7" fill="none" stroke="#00aae7" stroke-linecap="round" stroke-linejoin="round"/><polygon points="967.87 239.53 946.95 239.53 957.41 218.35 967.87 197.18 978.33 218.35 988.78 239.53 967.87 239.53" fill="none" stroke="#00aae7" stroke-linecap="round" stroke-linejoin="round" stroke-width="0.5"/><polygon points="967.87 239.53 988.78 239.53 978.33 260.69 967.87 281.87 957.41 260.69 946.95 239.53 967.87 239.53" fill="none" stroke="#00aae7" stroke-linecap="round" stroke-linejoin="round" stroke-width="0.5"/><polygon points="946.95 281.87 926.04 281.87 936.5 260.7 946.95 239.53 957.41 260.7 967.87 281.87 946.95 281.87" fill="none" stroke="#00aae7" stroke-linecap="round" stroke-linejoin="round" stroke-width="0.5"/><polygon points="946.95 281.87 967.87 281.87 957.41 303.05 946.95 324.22 936.5 303.05 926.04 281.87 946.95 281.87" fill="none" stroke="#00aae7" stroke-linecap="round" stroke-linejoin="round" stroke-width="0.5"/><polygon points="988.78 281.87 967.87 281.87 978.33 260.7 988.78 239.53 999.24 260.7 1009.7 281.87 988.78 281.87" fill="none" stroke="#00aae7" stroke-linecap="round" stroke-linejoin="round" stroke-width="0.5"/><polygon points="1009.7 324.22 988.78 324.22 999.24 303.05 1009.7 281.87 1020.16 303.05 1030.61 324.22 1009.7 324.22" fill="none" stroke="#00aae7" stroke-linecap="round" stroke-linejoin="round" stroke-width="0.5"/><polygon points="967.87 324.22 946.95 324.22 957.41 303.05 967.87 281.87 978.33 303.05 988.78 324.22 967.87 324.22" fill="none" stroke="#00aae7" stroke-linecap="round" stroke-linejoin="round" stroke-width="0.5"/><polygon points="926.04 324.22 905.13 324.22 915.58 303.05 926.04 281.87 936.5 303.05 946.95 324.22 926.04 324.22" fill="none" stroke="#00aae7" stroke-linecap="round" stroke-linejoin="round" stroke-width="0.5"/><polygon points="988.78 281.87 1009.7 281.87 999.24 303.05 988.78 324.22 978.33 303.05 967.87 281.87 988.78 281.87" fill="none" stroke="#00aae7" stroke-linecap="round" stroke-linejoin="round" stroke-width="0.5"/><polygon points="1184.01 0.25 1246.7 0.25 1215.36 63.71 1184.01 127.18 1152.66 63.71 1121.33 0.25 1184.01 0.25" fill="none" stroke="#00aae7" stroke-linecap="round" stroke-linejoin="round" stroke-width="0.5"/><polygon points="1121.32 127.18 1058.64 127.18 1089.97 63.71 1121.32 0.25 1152.66 63.71 1184.01 127.18 1121.32 127.18" fill="none" stroke="#00aae7" stroke-linecap="round" stroke-linejoin="round" stroke-width="0.5"/><polygon points="1121.33 127.18 1184.01 127.18 1152.66 190.64 1121.33 254.1 1089.97 190.64 1058.64 127.18 1121.33 127.18" fill="none" stroke="#00aae7" stroke-linecap="round" stroke-linejoin="round" stroke-width="0.5"/><polygon points="1246.7 127.18 1184.01 127.18 1215.35 63.71 1246.7 0.25 1278.04 63.71 1309.38 127.18 1246.7 127.18" fill="none" stroke="#00aae7" stroke-linecap="round" stroke-linejoin="round" stroke-width="0.5"/><polygon points="1184.01 254.1 1121.32 254.1 1152.66 190.64 1184.01 127.18 1215.35 190.64 1246.7 254.1 1184.01 254.1" fill="none" stroke="#00aae7" stroke-linecap="round" stroke-linejoin="round" stroke-width="0.5"/><polygon points="1058.64 254.1 995.94 254.1 1027.29 190.64 1058.64 127.18 1089.97 190.64 1121.32 254.1 1058.64 254.1" fill="#202d7c" opacity="0.4"/><polygon points="1058.64 254.1 995.94 254.1 1027.29 190.64 1058.64 127.18 1089.97 190.64 1121.32 254.1 1058.64 254.1" fill="none" stroke="#00aae7" stroke-linecap="round" stroke-linejoin="round" stroke-width="0.5"/><polygon points="1246.7 127.18 1309.38 127.18 1278.04 190.64 1246.7 254.1 1215.36 190.64 1184.01 127.18 1246.7 127.18" fill="none" stroke="#00aae7" stroke-linecap="round" stroke-linejoin="round" stroke-width="0.5"/><polygon points="718.18 388 762.96 388 740.58 433.32 718.18 478.67 695.79 433.32 673.4 388 718.18 388" fill="none" stroke="#00aae7" stroke-linecap="round" stroke-linejoin="round" stroke-width="0.5"/><polygon points="718.18 388 673.4 388 695.79 342.67 718.18 297.33 740.58 342.67 762.96 388 718.18 388" fill="none" stroke="#00aae7" stroke-linecap="round" stroke-linejoin="round" stroke-width="0.5"/><polygon points="762.96 297.33 807.74 297.33 785.35 342.66 762.96 388 740.58 342.66 718.18 297.33 762.96 297.33" fill="none" stroke="#00aae7" stroke-linecap="round" stroke-linejoin="round" stroke-width="0.5"/><polygon points="762.96 297.33 718.18 297.33 740.58 252 762.96 206.66 785.35 252 807.74 297.33 762.96 297.33" fill="none" stroke="#00aae7" stroke-linecap="round" stroke-linejoin="round" stroke-width="0.5"/><polygon points="673.4 297.33 718.18 297.33 695.79 342.66 673.4 388 651.01 342.66 628.62 297.33 673.4 297.33" fill="none" stroke="#00aae7" stroke-linecap="round" stroke-linejoin="round" stroke-width="0.5"/><polygon points="628.62 206.66 673.4 206.66 651.01 252 628.62 297.33 606.24 252 583.84 206.66 628.62 206.66" fill="none" stroke="#00aae7" stroke-linecap="round" stroke-linejoin="round" stroke-width="0.5"/><polygon points="718.18 206.66 762.96 206.66 740.58 252 718.18 297.33 695.79 252 673.4 206.66 718.18 206.66" fill="none" stroke="#00aae7" stroke-linecap="round" stroke-linejoin="round" stroke-width="0.5"/><polygon points="807.74 206.66 852.53 206.66 830.13 252 807.74 297.33 785.35 252 762.96 206.66 807.74 206.66" fill="none" stroke="#00aae7" stroke-linecap="round" stroke-linejoin="round" stroke-width="0.5"/><polygon points="673.4 297.33 628.62 297.33 651.01 252 673.4 206.66 695.79 252 718.18 297.33 673.4 297.33" fill="none" stroke="#00aae7" stroke-linecap="round" stroke-linejoin="round" stroke-width="0.5"/><polygon points="995.94 191.18 1027.03 191.18 1011.49 222.64 995.94 254.1 980.41 222.64 964.87 191.18 995.94 191.18" fill="none" stroke="#00aae7" stroke-linecap="round" stroke-linejoin="round" stroke-width="0.5"/><polygon points="995.94 191.18 964.87 191.18 980.41 159.72 995.94 128.26 1011.49 159.72 1027.03 191.18 995.94 191.18" fill="none" stroke="#00aae7" stroke-linecap="round" stroke-linejoin="round" stroke-width="0.5"/><polygon points="1027.03 128.26 1058.1 128.26 1042.56 159.72 1027.03 191.18 1011.49 159.72 995.94 128.26 1027.03 128.26" fill="none" stroke="#00aae7" stroke-linecap="round" stroke-linejoin="round" stroke-width="0.5"/><polygon points="1027.03 128.26 995.94 128.26 1011.49 96.8 1027.03 65.34 1042.56 96.8 1058.1 128.26 1027.03 128.26" fill="#202d7c" opacity="0.7"/><polygon points="1027.03 128.26 995.94 128.26 1011.49 96.8 1027.03 65.34 1042.56 96.8 1058.1 128.26 1027.03 128.26" fill="none" stroke="#00aae7" stroke-linecap="round" stroke-linejoin="round" stroke-width="0.5"/><polygon points="964.87 128.26 995.94 128.26 980.41 159.72 964.87 191.18 949.33 159.72 933.8 128.26 964.87 128.26" fill="none" stroke="#00aae7" stroke-linecap="round" stroke-linejoin="round" stroke-width="0.5"/><polygon points="933.8 65.34 964.87 65.34 949.33 96.8 933.8 128.26 918.25 96.8 902.71 65.34 933.8 65.34" fill="none" stroke="#00aae7" stroke-linecap="round" stroke-linejoin="round" stroke-width="0.5"/><polygon points="995.94 65.34 1027.03 65.34 1011.49 96.8 995.94 128.26 980.41 96.8 964.87 65.34 995.94 65.34" fill="none" stroke="#00aae7" stroke-linecap="round" stroke-linejoin="round" stroke-width="0.5"/><polygon points="1058.1 65.34 1089.17 65.34 1073.64 96.8 1058.1 128.26 1042.56 96.8 1027.03 65.34 1058.1 65.34" fill="none" stroke="#00aae7" stroke-linecap="round" stroke-linejoin="round" stroke-width="0.5"/><polygon points="964.87 128.26 933.8 128.26 949.33 96.8 964.87 65.34 980.41 96.8 995.94 128.26 964.87 128.26" fill="none" stroke="#00aae7" stroke-linecap="round" stroke-linejoin="round" stroke-width="0.5"/><polygon points="870.9 206.66 852.53 206.66 861.71 188.05 870.9 169.45 880.09 188.05 889.28 206.66 870.9 206.66" fill="none" stroke="#00aae7" stroke-linecap="round" stroke-linejoin="round" stroke-width="0.5"/><polygon points="870.9 206.66 889.28 206.66 880.09 225.27 870.9 243.88 861.71 225.27 852.53 206.66 870.9 206.66" fill="none" stroke="#00aae7" stroke-linecap="round" stroke-linejoin="round" stroke-width="0.5"/><polygon points="852.53 243.88 834.14 243.88 843.33 225.27 852.53 206.66 861.71 225.27 870.9 243.88 852.53 243.88" fill="none" stroke="#00aae7" stroke-linecap="round" stroke-linejoin="round" stroke-width="0.5"/><polygon points="852.53 243.88 870.9 243.88 861.71 262.48 852.53 281.09 843.33 262.48 834.14 243.88 852.53 243.88" fill="none" stroke="#00aae7" stroke-linecap="round" stroke-linejoin="round" stroke-width="0.5"/><polygon points="889.28 243.88 870.9 243.88 880.09 225.27 889.28 206.66 898.47 225.27 907.66 243.88 889.28 243.88" fill="none" stroke="#00aae7" stroke-linecap="round" stroke-linejoin="round" stroke-width="0.5"/><polygon points="907.66 281.09 889.28 281.09 898.47 262.48 907.66 243.88 916.85 262.48 926.04 281.09 907.66 281.09" fill="none" stroke="#00aae7" stroke-linecap="round" stroke-linejoin="round" stroke-width="0.5"/><polygon points="870.9 281.09 852.53 281.09 861.71 262.48 870.9 243.88 880.09 262.48 889.28 281.09 870.9 281.09" fill="none" stroke="#00aae7" stroke-linecap="round" stroke-linejoin="round" stroke-width="0.5"/><polygon points="834.14 281.09 815.76 281.09 824.96 262.48 834.14 243.88 843.33 262.48 852.53 281.09 834.14 281.09" fill="none" stroke="#00aae7" stroke-linecap="round" stroke-linejoin="round" stroke-width="0.5"/><polygon points="889.28 243.88 907.66 243.88 898.47 262.48 889.28 281.09 880.09 262.48 870.9 243.88 889.28 243.88" fill="none" stroke="#00aae7" stroke-linecap="round" stroke-linejoin="round" stroke-width="0.5"/><polygon points="1058.63 402.1 1048.23 402.1 1053.43 391.56 1058.63 381.02 1063.84 391.56 1069.04 402.1 1058.63 402.1" fill="none" stroke="#00aae7" stroke-linecap="round" stroke-linejoin="round" stroke-width="0.5"/><polygon points="1058.64 402.1 1069.04 402.1 1063.84 412.64 1058.64 423.18 1053.43 412.64 1048.23 402.1 1058.64 402.1" fill="none" stroke="#00aae7" stroke-linecap="round" stroke-linejoin="round" stroke-width="0.5"/><polygon points="1048.23 423.18 1037.82 423.18 1043.02 412.64 1048.23 402.1 1053.43 412.64 1058.63 423.18 1048.23 423.18" fill="none" stroke="#00aae7" stroke-linecap="round" stroke-linejoin="round" stroke-width="0.5"/><polygon points="1048.23 423.18 1058.63 423.18 1053.43 433.71 1048.23 444.25 1043.02 433.71 1037.82 423.18 1048.23 423.18" fill="none" stroke="#00aae7" stroke-linecap="round" stroke-linejoin="round" stroke-width="0.5"/><polygon points="1069.04 423.18 1058.63 423.18 1063.84 412.64 1069.04 402.1 1074.25 412.64 1079.45 423.18 1069.04 423.18" fill="none" stroke="#00aae7" stroke-linecap="round" stroke-linejoin="round" stroke-width="0.5"/><polygon points="1079.45 444.25 1069.04 444.25 1074.25 433.71 1079.45 423.18 1084.65 433.71 1089.87 444.25 1079.45 444.25" fill="none" stroke="#00aae7" stroke-linecap="round" stroke-linejoin="round" stroke-width="0.5"/><polygon points="1058.63 444.25 1048.23 444.25 1053.43 433.71 1058.63 423.18 1063.84 433.71 1069.04 444.25 1058.63 444.25" fill="none" stroke="#00aae7" stroke-linecap="round" stroke-linejoin="round" stroke-width="0.5"/><polygon points="1037.82 444.25 1027.4 444.25 1032.6 433.71 1037.82 423.18 1043.02 433.71 1048.23 444.25 1037.82 444.25" fill="none" stroke="#00aae7" stroke-linecap="round" stroke-linejoin="round" stroke-width="0.5"/><polygon points="1069.04 423.18 1079.45 423.18 1074.25 433.71 1069.04 444.25 1063.84 433.71 1058.63 423.18 1069.04 423.18" fill="none" stroke="#00aae7" stroke-linecap="round" stroke-linejoin="round" stroke-width="0.5"/><polygon points="290.44 296.94 269.53 296.94 279.98 275.77 290.44 254.6 300.88 275.77 311.33 296.94 290.44 296.94" fill="none" stroke="#00aae7" stroke-linecap="round" stroke-linejoin="round"/><polygon points="290.44 296.94 311.33 296.94 300.89 318.1 290.44 339.26 279.98 318.1 269.53 296.94 290.44 296.94" fill="none" stroke="#00aae7" stroke-linecap="round" stroke-linejoin="round"/><polygon points="269.53 339.26 248.62 339.26 259.07 318.1 269.53 296.94 279.98 318.1 290.44 339.26 269.53 339.26" fill="none" stroke="#00aae7" stroke-linecap="round" stroke-linejoin="round"/><polygon points="269.53 339.26 290.44 339.26 279.98 360.42 269.53 381.58 259.08 360.42 248.62 339.26 269.53 339.26" fill="none" stroke="#00aae7" stroke-linecap="round" stroke-linejoin="round"/><polygon points="311.33 339.26 290.44 339.26 300.88 318.1 311.33 296.94 321.78 318.1 332.23 339.26 311.33 339.26" fill="none" stroke="#00aae7" stroke-linecap="round" stroke-linejoin="round"/><polygon points="332.23 381.58 311.33 381.58 321.78 360.42 332.23 339.26 342.68 360.42 353.14 381.58 332.23 381.58" fill="none" stroke="#00aae7" stroke-linecap="round" stroke-linejoin="round"/><polygon points="290.44 381.58 269.53 381.58 279.98 360.42 290.44 339.26 300.88 360.42 311.33 381.58 290.44 381.58" fill="none" stroke="#00aae7" stroke-linecap="round" stroke-linejoin="round"/><polygon points="248.62 381.58 227.72 381.58 238.17 360.42 248.62 339.26 259.07 360.42 269.53 381.58 248.62 381.58" fill="none" stroke="#00aae7" stroke-linecap="round" stroke-linejoin="round"/><polygon points="311.33 339.26 332.23 339.26 321.78 360.42 311.33 381.58 300.89 360.42 290.44 339.26 311.33 339.26" fill="none" stroke="#00aae7" stroke-linecap="round" stroke-linejoin="round"/><polygon points="133.98 234.09 113.06 234.09 123.52 212.92 133.98 191.74 144.43 212.92 154.89 234.09 133.98 234.09" fill="none" stroke="#00aae7" stroke-linecap="round" stroke-linejoin="round" stroke-width="0.5"/><polygon points="133.98 234.09 154.89 234.09 144.43 255.26 133.98 276.44 123.52 255.26 113.06 234.09 133.98 234.09" fill="none" stroke="#00aae7" stroke-linecap="round" stroke-linejoin="round" stroke-width="0.5"/><polygon points="113.06 276.44 92.15 276.44 102.61 255.26 113.06 234.09 123.52 255.26 133.98 276.44 113.06 276.44" fill="none" stroke="#00aae7" stroke-linecap="round" stroke-linejoin="round" stroke-width="0.5"/><polygon points="154.89 276.44 133.98 276.44 144.43 255.26 154.89 234.09 165.34 255.26 175.8 276.44 154.89 276.44" fill="none" stroke="#00aae7" stroke-linecap="round" stroke-linejoin="round" stroke-width="0.5"/><polygon points="175.8 318.79 154.89 318.79 165.34 297.61 175.8 276.44 186.26 297.61 196.72 318.79 175.8 318.79" fill="none" stroke="#00aae7" stroke-linecap="round" stroke-linejoin="round" stroke-width="0.5"/><polygon points="133.98 318.79 113.06 318.79 123.52 297.61 133.98 276.44 144.43 297.61 154.89 318.79 133.98 318.79" fill="none" stroke="#00aae7" stroke-linecap="round" stroke-linejoin="round" stroke-width="0.5"/><polygon points="92.15 318.79 71.23 318.79 81.69 297.61 92.15 276.44 102.61 297.61 113.06 318.79 92.15 318.79" fill="none" stroke="#00aae7" stroke-linecap="round" stroke-linejoin="round" stroke-width="0.5"/><polygon points="154.89 276.44 175.8 276.44 165.34 297.61 154.89 318.79 144.43 297.61 133.98 276.44 154.89 276.44" fill="none" stroke="#00aae7" stroke-linecap="round" stroke-linejoin="round" stroke-width="0.5"/><polygon points="353.12 0.81 415.81 0.81 384.47 64.27 353.12 127.74 321.77 64.27 290.44 0.81 353.12 0.81" fill="none" stroke="#00aae7" stroke-linecap="round" stroke-linejoin="round" stroke-width="0.5"/><polygon points="290.43 127.74 227.74 127.74 259.08 64.27 290.43 0.81 321.77 64.27 353.12 127.74 290.43 127.74" fill="none" stroke="#00aae7" stroke-linecap="round" stroke-linejoin="round" stroke-width="0.5"/><polygon points="290.44 127.74 353.12 127.74 321.77 191.2 290.44 254.66 259.08 191.2 227.74 127.74 290.44 127.74" fill="none" stroke="#00aae7" stroke-linecap="round" stroke-linejoin="round" stroke-width="0.5"/><polygon points="415.81 127.74 353.12 127.74 384.46 64.27 415.81 0.81 447.15 64.27 478.49 127.74 415.81 127.74" fill="none" stroke="#00aae7" stroke-linecap="round" stroke-linejoin="round" stroke-width="0.5"/><polygon points="478.49 254.66 415.81 254.66 447.15 191.2 478.49 127.74 509.83 191.2 541.18 254.66 478.49 254.66" fill="none" stroke="#00aae7" stroke-linecap="round" stroke-linejoin="round" stroke-width="0.5"/><polygon points="353.12 254.66 290.43 254.66 321.77 191.2 353.12 127.74 384.46 191.2 415.81 254.66 353.12 254.66" fill="none" stroke="#00aae7" stroke-linecap="round" stroke-linejoin="round" stroke-width="0.5"/><polygon points="227.74 254.66 165.05 254.66 196.39 191.2 227.74 127.74 259.08 191.2 290.43 254.66 227.74 254.66" fill="none" stroke="#00aae7" stroke-linecap="round" stroke-linejoin="round" stroke-width="0.5"/><polygon points="415.81 127.74 478.49 127.74 447.15 191.2 415.81 254.66 384.47 191.2 353.12 127.74 415.81 127.74" fill="#202d7c" opacity="0.4"/><polygon points="415.81 127.74 478.49 127.74 447.15 191.2 415.81 254.66 384.47 191.2 353.12 127.74 415.81 127.74" fill="none" stroke="#00aae7" stroke-linecap="round" stroke-linejoin="round" stroke-width="0.5"/><polygon points="165.05 191.74 196.13 191.74 180.59 223.2 165.05 254.66 149.51 223.2 133.98 191.74 165.05 191.74" fill="none" stroke="#00aae7" stroke-linecap="round" stroke-linejoin="round" stroke-width="0.5"/><polygon points="165.05 191.74 133.98 191.74 149.51 160.28 165.05 128.82 180.59 160.28 196.13 191.74 165.05 191.74" fill="none" stroke="#00aae7" stroke-linecap="round" stroke-linejoin="round" stroke-width="0.5"/><polygon points="196.13 128.82 227.2 128.82 211.67 160.28 196.13 191.74 180.59 160.28 165.05 128.82 196.13 128.82" fill="none" stroke="#00aae7" stroke-linecap="round" stroke-linejoin="round" stroke-width="0.5"/><polygon points="196.13 128.82 165.05 128.82 180.59 97.36 196.13 65.9 211.67 97.36 227.2 128.82 196.13 128.82" fill="#202d7c" opacity="0.4"/><polygon points="196.13 128.82 165.05 128.82 180.59 97.36 196.13 65.9 211.67 97.36 227.2 128.82 196.13 128.82" fill="none" stroke="#00aae7" stroke-linecap="round" stroke-linejoin="round" stroke-width="0.5"/><polygon points="133.98 128.82 165.05 128.82 149.51 160.28 133.98 191.74 118.44 160.28 102.9 128.82 133.98 128.82" fill="#202d7c" opacity="0.7"/><polygon points="133.98 128.82 165.05 128.82 149.51 160.28 133.98 191.74 118.44 160.28 102.9 128.82 133.98 128.82" fill="none" stroke="#00aae7" stroke-linecap="round" stroke-linejoin="round" stroke-width="0.5"/><polygon points="102.9 65.9 133.98 65.9 118.44 97.36 102.9 128.82 87.36 97.36 71.82 65.9 102.9 65.9" fill="none" stroke="#00aae7" stroke-linecap="round" stroke-linejoin="round" stroke-width="0.5"/><polygon points="165.05 65.9 196.13 65.9 180.59 97.36 165.05 128.82 149.51 97.36 133.98 65.9 165.05 65.9" fill="none" stroke="#00aae7" stroke-linecap="round" stroke-linejoin="round" stroke-width="0.5"/><polygon points="227.2 65.9 258.28 65.9 242.74 97.36 227.2 128.82 211.67 97.36 196.13 65.9 227.2 65.9" fill="none" stroke="#00aae7" stroke-linecap="round" stroke-linejoin="round" stroke-width="0.5"/><polygon points="133.98 128.82 102.9 128.82 118.44 97.36 133.98 65.9 149.51 97.36 165.05 128.82 133.98 128.82" fill="none" stroke="#00aae7" stroke-linecap="round" stroke-linejoin="round" stroke-width="0.5"/><polygon points="37.01 201.23 18.64 201.23 27.81 182.61 37.01 164.01 46.2 182.61 55.39 201.23 37.01 201.23" fill="none" stroke="#00aae7" stroke-linecap="round" stroke-linejoin="round" stroke-width="0.5"/><polygon points="37.01 201.23 55.39 201.23 46.2 219.83 37.01 238.44 27.81 219.83 18.64 201.23 37.01 201.23" fill="none" stroke="#00aae7" stroke-linecap="round" stroke-linejoin="round" stroke-width="0.5"/><polygon points="18.64 238.44 0.25 238.44 9.44 219.84 18.64 201.23 27.81 219.84 37.01 238.44 18.64 238.44" fill="none" stroke="#00aae7" stroke-linecap="round" stroke-linejoin="round" stroke-width="0.5"/><polygon points="18.64 238.44 37.01 238.44 27.81 257.05 18.64 275.66 9.44 257.05 0.25 238.44 18.64 238.44" fill="none" stroke="#00aae7" stroke-linecap="round" stroke-linejoin="round" stroke-width="0.5"/><polygon points="55.39 238.44 37.01 238.44 46.2 219.84 55.39 201.23 64.57 219.84 73.77 238.44 55.39 238.44" fill="none" stroke="#00aae7" stroke-linecap="round" stroke-linejoin="round" stroke-width="0.5"/><polygon points="73.77 275.66 55.39 275.66 64.57 257.05 73.77 238.44 82.96 257.05 92.15 275.66 73.77 275.66" fill="none" stroke="#00aae7" stroke-linecap="round" stroke-linejoin="round" stroke-width="0.5"/><polygon points="37.01 275.66 18.64 275.66 27.81 257.05 37.01 238.44 46.2 257.05 55.39 275.66 37.01 275.66" fill="none" stroke="#00aae7" stroke-linecap="round" stroke-linejoin="round" stroke-width="0.5"/><polygon points="55.39 238.44 73.77 238.44 64.57 257.05 55.39 275.66 46.2 257.05 37.01 238.44 55.39 238.44" fill="none" stroke="#00aae7" stroke-linecap="round" stroke-linejoin="round" stroke-width="0.5"/><polygon points="227.73 402.66 217.33 402.66 222.54 392.12 227.73 381.58 232.94 392.12 238.15 402.66 227.73 402.66" fill="none" stroke="#00aae7" stroke-linecap="round" stroke-linejoin="round" stroke-width="0.5"/><polygon points="227.74 402.66 238.15 402.66 232.94 413.2 227.74 423.74 222.54 413.2 217.33 402.66 227.74 402.66" fill="none" stroke="#00aae7" stroke-linecap="round" stroke-linejoin="round" stroke-width="0.5"/><polygon points="217.33 423.74 206.93 423.74 212.13 413.2 217.33 402.66 222.54 413.2 227.73 423.74 217.33 423.74" fill="none" stroke="#00aae7" stroke-linecap="round" stroke-linejoin="round" stroke-width="0.5"/><polygon points="217.33 423.74 227.73 423.74 222.54 434.28 217.33 444.82 212.13 434.28 206.93 423.74 217.33 423.74" fill="none" stroke="#00aae7" stroke-linecap="round" stroke-linejoin="round" stroke-width="0.5"/><polygon points="238.15 423.74 227.73 423.74 232.94 413.2 238.15 402.66 243.35 413.2 248.56 423.74 238.15 423.74" fill="none" stroke="#00aae7" stroke-linecap="round" stroke-linejoin="round" stroke-width="0.5"/><polygon points="248.56 444.82 238.15 444.82 243.35 434.28 248.56 423.74 253.76 434.28 258.97 444.82 248.56 444.82" fill="none" stroke="#00aae7" stroke-linecap="round" stroke-linejoin="round" stroke-width="0.5"/><polygon points="227.73 444.82 217.33 444.82 222.54 434.28 227.73 423.74 232.94 434.28 238.15 444.82 227.73 444.82" fill="none" stroke="#00aae7" stroke-linecap="round" stroke-linejoin="round" stroke-width="0.5"/><polygon points="206.93 444.82 196.51 444.82 201.71 434.28 206.93 423.74 212.13 434.28 217.33 444.82 206.93 444.82" fill="none" stroke="#00aae7" stroke-linecap="round" stroke-linejoin="round" stroke-width="0.5"/><polygon points="238.15 423.74 248.56 423.74 243.35 434.28 238.15 444.82 232.94 434.28 227.73 423.74 238.15 423.74" fill="none" stroke="#00aae7" stroke-linecap="round" stroke-linejoin="round" stroke-width="0.5"/><path d="M970,274.38a3,3,0,1,0-2.81-3.16,3,3,0,0,0,2.81,3.16" transform="translate(151.14 65.84)" fill="#f5d258"/><path d="M970,191.82a3,3,0,0,0,3.18-2.83,3,3,0,0,0-2.81-3.16,3,3,0,0,0-.37,6" transform="translate(151.14 65.84)" fill="#f5d258"/><path d="M76.42,65.41a3,3,0,0,0,3.18-2.83,3,3,0,0,0-2.82-3.16,3,3,0,0,0-3.17,2.84,3,3,0,0,0,2.81,3.15" transform="translate(151.14 65.84)" fill="#f5d258"/><path d="M-59.18,213.59A3,3,0,0,0-56,210.76a3,3,0,0,0-2.82-3.16A3,3,0,0,0-62,210.44a3,3,0,0,0,2.81,3.15" transform="translate(151.14 65.84)" fill="#f5d258"/><path d="M3.57,255.94a3,3,0,0,0,3.18-2.83A3,3,0,0,0,3.93,250a3,3,0,0,0-3.17,2.83,3,3,0,0,0,2.81,3.16" transform="translate(151.14 65.84)" fill="#f5d258"/><path d="M-17.35,128.9a3,3,0,0,0,3.18-2.83A3,3,0,0,0-17,122.91a3,3,0,0,0-3.17,2.83,3,3,0,0,0,2.81,3.16" transform="translate(151.14 65.84)" fill="#f5d258"/><path d="M641.57,23.08a3,3,0,0,0,3.18-2.83,3,3,0,0,0-2.82-3.16,3,3,0,0,0-3.17,2.83,3,3,0,0,0,2.81,3.16" transform="translate(151.14 65.84)" fill="#f5d258"/><path d="M907.31,65.42a3,3,0,1,0-2.81-3.16,3,3,0,0,0,2.81,3.16" transform="translate(151.14 65.84)" fill="#f5d258"/><polygon points="1167.51 965.08 1187.31 965.08 1177.41 985.11 1167.51 1005.16 1157.62 985.11 1147.72 965.08 1167.51 965.08" fill="#202d7c" opacity="0.4"/><polygon points="1055.38 1217.35 1031.43 1217.35 1043.41 1193.11 1055.38 1168.87 1067.35 1193.11 1079.32 1217.35 1055.38 1217.35" fill="#202d7c" opacity="0.4"/><polygon points="1079.69 925 1127.93 925 1103.81 973.82 1079.69 1022.64 1055.58 973.82 1031.46 925 1079.69 925" fill="#202d7c" opacity="0.7"/><polygon points="1063.69 859.98 1031.59 859.98 1047.64 827.47 1063.69 794.96 1079.75 827.47 1095.81 859.98 1063.69 859.98" fill="#202d7c"/><polygon points="1031.59 925 999.47 925 1015.53 892.48 1031.59 859.98 1047.64 892.48 1063.69 925 1031.59 925" fill="#202d7c" opacity="0.4"/><polygon points="1031.59 794.96 999.47 794.96 1015.53 762.44 1031.59 729.93 1047.64 762.44 1063.69 794.96 1031.59 794.96" fill="none" stroke="#00aae7" stroke-linecap="round" stroke-linejoin="round" stroke-width="1.08"/><polygon points="1031.59 794.96 1063.69 794.96 1047.64 827.47 1031.59 859.98 1015.53 827.47 999.47 794.96 1031.59 794.96" fill="none" stroke="#00aae7" stroke-linecap="round" stroke-linejoin="round" stroke-width="1.08"/><polygon points="999.47 859.98 967.36 859.98 983.41 827.47 999.47 794.96 1015.52 827.47 1031.59 859.98 999.47 859.98" fill="none" stroke="#00aae7" stroke-linecap="round" stroke-linejoin="round" stroke-width="1.08"/><polygon points="999.47 859.98 1031.59 859.98 1015.53 892.48 999.47 925 983.41 892.48 967.36 859.98 999.47 859.98" fill="none" stroke="#00aae7" stroke-linecap="round" stroke-linejoin="round" stroke-width="1.08"/><polygon points="1063.69 859.98 1031.59 859.98 1047.64 827.47 1063.69 794.96 1079.75 827.47 1095.81 859.98 1063.69 859.98" fill="none" stroke="#00aae7" stroke-linecap="round" stroke-linejoin="round" stroke-width="1.08"/><polygon points="1095.81 925 1063.69 925 1079.76 892.48 1095.81 859.98 1111.87 892.48 1127.93 925 1095.81 925" fill="none" stroke="#00aae7" stroke-linecap="round" stroke-linejoin="round" stroke-width="1.08"/><polygon points="1031.59 925 999.47 925 1015.53 892.48 1031.59 859.98 1047.64 892.48 1063.69 925 1031.59 925" fill="none" stroke="#00aae7" stroke-linecap="round" stroke-linejoin="round" stroke-width="1.08"/><polygon points="967.36 925 935.24 925 951.29 892.48 967.36 859.98 983.41 892.48 999.47 925 967.36 925" fill="none" stroke="#00aae7" stroke-linecap="round" stroke-linejoin="round" stroke-width="1.08"/><polygon points="1063.69 859.98 1095.81 859.98 1079.75 892.48 1063.69 925 1047.64 892.48 1031.59 859.98 1063.69 859.98" fill="none" stroke="#00aae7" stroke-linecap="round" stroke-linejoin="round" stroke-width="1.08"/><polygon points="1031.43 1168.87 1007.49 1168.87 1019.47 1144.63 1031.43 1120.38 1043.41 1144.63 1055.38 1168.87 1031.43 1168.87" fill="none" stroke="#00aae7" stroke-linecap="round" stroke-linejoin="round" stroke-width="1.09"/><polygon points="1031.43 1168.87 1055.38 1168.87 1043.41 1193.11 1031.43 1217.35 1019.47 1193.11 1007.49 1168.87 1031.43 1168.87" fill="#202d7c" opacity="0.7"/><polygon points="1031.43 1168.87 1055.38 1168.87 1043.41 1193.11 1031.43 1217.35 1019.47 1193.11 1007.49 1168.87 1031.43 1168.87" fill="none" stroke="#00aae7" stroke-linecap="round" stroke-linejoin="round" stroke-width="1.09"/><polygon points="1007.49 1217.35 983.55 1217.35 995.52 1193.11 1007.49 1168.87 1019.47 1193.11 1031.43 1217.35 1007.49 1217.35" fill="none" stroke="#00aae7" stroke-linecap="round" stroke-linejoin="round" stroke-width="1.09"/><polygon points="1007.49 1217.35 1031.43 1217.35 1019.47 1241.59 1007.49 1265.84 995.52 1241.59 983.55 1217.35 1007.49 1217.35" fill="none" stroke="#00aae7" stroke-linecap="round" stroke-linejoin="round" stroke-width="1.09"/><polygon points="1055.38 1217.35 1031.43 1217.35 1043.41 1193.11 1055.38 1168.87 1067.35 1193.11 1079.32 1217.35 1055.38 1217.35" fill="none" stroke="#00aae7" stroke-linecap="round" stroke-linejoin="round" stroke-width="1.09"/><polygon points="1079.32 1265.84 1055.38 1265.84 1067.35 1241.59 1079.32 1217.35 1091.31 1241.59 1103.27 1265.84 1079.32 1265.84" fill="none" stroke="#00aae7" stroke-linecap="round" stroke-linejoin="round" stroke-width="1.09"/><polygon points="1031.43 1265.84 1007.49 1265.84 1019.47 1241.59 1031.43 1217.35 1043.41 1241.59 1055.38 1265.84 1031.43 1265.84" fill="none" stroke="#00aae7" stroke-linecap="round" stroke-linejoin="round" stroke-width="1.09"/><polygon points="983.55 1265.84 959.6 1265.84 971.57 1241.59 983.55 1217.35 995.52 1241.59 1007.49 1265.84 983.55 1265.84" fill="#202d7c"/><polygon points="983.55 1265.84 959.6 1265.84 971.57 1241.59 983.55 1217.35 995.52 1241.59 1007.49 1265.84 983.55 1265.84" fill="none" stroke="#00aae7" stroke-linecap="round" stroke-linejoin="round" stroke-width="1.09"/><polygon points="1055.38 1217.35 1079.32 1217.35 1067.35 1241.59 1055.38 1265.84 1043.41 1241.59 1031.43 1217.35 1055.38 1217.35" fill="none" stroke="#00aae7" stroke-linecap="round" stroke-linejoin="round" stroke-width="1.09"/><polygon points="1229.63 1006 1207.1 1006 1218.37 983.2 1229.63 960.39 1240.89 983.2 1252.16 1006 1229.63 1006" fill="none" stroke="#00aae7" stroke-linecap="round" stroke-linejoin="round" stroke-width="0.54"/><polygon points="1229.63 1006 1252.16 1006 1240.89 1028.8 1229.63 1051.61 1218.37 1028.8 1207.1 1006 1229.63 1006" fill="none" stroke="#00aae7" stroke-linecap="round" stroke-linejoin="round" stroke-width="0.54"/><polygon points="1252.16 1051.61 1229.63 1051.61 1240.89 1028.8 1252.16 1006 1263.42 1028.8 1274.68 1051.61 1252.16 1051.61" fill="none" stroke="#00aae7" stroke-linecap="round" stroke-linejoin="round" stroke-width="0.54"/><polygon points="1207.1 1051.61 1184.58 1051.61 1195.84 1028.8 1207.1 1006 1218.37 1028.8 1229.63 1051.61 1207.1 1051.61" fill="none" stroke="#00aae7" stroke-linecap="round" stroke-linejoin="round" stroke-width="0.54"/><polygon points="983.24 1120.3 1031.46 1120.3 1007.35 1169.12 983.24 1217.95 959.12 1169.12 935.01 1120.3 983.24 1120.3" fill="none" stroke="#00aae7" stroke-linecap="round" stroke-linejoin="round" stroke-width="0.54"/><polygon points="983.24 1120.3 935.01 1120.3 959.12 1071.48 983.24 1022.64 1007.35 1071.48 1031.46 1120.3 983.24 1120.3" fill="none" stroke="#00aae7" stroke-linecap="round" stroke-linejoin="round" stroke-width="0.54"/><polygon points="1031.46 1022.64 1079.69 1022.64 1055.58 1071.47 1031.46 1120.3 1007.35 1071.47 983.24 1022.64 1031.46 1022.64" fill="none" stroke="#00aae7" stroke-linecap="round" stroke-linejoin="round" stroke-width="0.54"/><polygon points="1031.46 1022.64 983.24 1022.64 1007.35 973.82 1031.46 925 1055.58 973.82 1079.69 1022.64 1031.46 1022.64" fill="none" stroke="#00aae7" stroke-linecap="round" stroke-linejoin="round" stroke-width="0.54"/><polygon points="935.01 1022.64 983.24 1022.64 959.12 1071.47 935.01 1120.3 910.9 1071.47 886.78 1022.64 935.01 1022.64" fill="none" stroke="#00aae7" stroke-linecap="round" stroke-linejoin="round" stroke-width="0.54"/><polygon points="886.78 925 935.01 925 910.9 973.82 886.78 1022.64 862.67 973.82 838.55 925 886.78 925" fill="none" stroke="#00aae7" stroke-linecap="round" stroke-linejoin="round" stroke-width="0.54"/><polygon points="983.24 925 1031.46 925 1007.35 973.82 983.24 1022.64 959.12 973.82 935.01 925 983.24 925" fill="none" stroke="#00aae7" stroke-linecap="round" stroke-linejoin="round" stroke-width="0.54"/><polygon points="1079.69 925 1127.93 925 1103.81 973.82 1079.69 1022.64 1055.58 973.82 1031.46 925 1079.69 925" fill="none" stroke="#00aae7" stroke-linecap="round" stroke-linejoin="round" stroke-width="0.54"/><polygon points="935.01 1022.64 886.78 1022.64 910.9 973.82 935.01 925 959.12 973.82 983.24 1022.64 935.01 1022.64" fill="none" stroke="#00aae7" stroke-linecap="round" stroke-linejoin="round" stroke-width="0.54"/><polygon points="1218.69 779.25 1252.16 779.25 1235.42 813.13 1218.69 847.01 1201.95 813.13 1185.21 779.25 1218.69 779.25" fill="none" stroke="#00aae7" stroke-linecap="round" stroke-linejoin="round" stroke-width="0.54"/><polygon points="1252.16 847.01 1218.69 847.01 1235.42 813.13 1252.16 779.25 1268.89 813.13 1285.62 847.01 1252.16 847.01" fill="none" stroke="#00aae7" stroke-linecap="round" stroke-linejoin="round" stroke-width="0.54"/><polygon points="1147.72 925 1127.93 925 1137.82 904.95 1147.72 884.91 1157.62 904.95 1167.51 925 1147.72 925" fill="none" stroke="#00aae7" stroke-linecap="round" stroke-linejoin="round" stroke-width="0.54"/><polygon points="1147.72 925 1167.51 925 1157.62 945.04 1147.72 965.08 1137.82 945.04 1127.93 925 1147.72 925" fill="none" stroke="#00aae7" stroke-linecap="round" stroke-linejoin="round" stroke-width="0.54"/><polygon points="1127.93 965.08 1108.13 965.08 1118.03 945.04 1127.93 925 1137.82 945.04 1147.72 965.08 1127.93 965.08" fill="none" stroke="#00aae7" stroke-linecap="round" stroke-linejoin="round" stroke-width="0.54"/><polygon points="1127.93 965.08 1147.72 965.08 1137.82 985.11 1127.93 1005.16 1118.03 985.11 1108.13 965.08 1127.93 965.08" fill="none" stroke="#00aae7" stroke-linecap="round" stroke-linejoin="round" stroke-width="0.54"/><polygon points="1167.51 965.08 1147.72 965.08 1157.62 945.04 1167.51 925 1177.41 945.04 1187.31 965.08 1167.51 965.08" fill="none" stroke="#00aae7" stroke-linecap="round" stroke-linejoin="round" stroke-width="0.54"/><polygon points="1187.31 1005.16 1167.51 1005.16 1177.41 985.11 1187.31 965.08 1197.21 985.11 1207.1 1005.16 1187.31 1005.16" fill="none" stroke="#00aae7" stroke-linecap="round" stroke-linejoin="round" stroke-width="0.54"/><polygon points="1147.72 1005.16 1127.93 1005.16 1137.82 985.11 1147.72 965.08 1157.62 985.11 1167.51 1005.16 1147.72 1005.16" fill="none" stroke="#00aae7" stroke-linecap="round" stroke-linejoin="round" stroke-width="0.54"/><polygon points="1108.13 1005.16 1088.33 1005.16 1098.24 985.11 1108.13 965.08 1118.03 985.11 1127.93 1005.16 1108.13 1005.16" fill="none" stroke="#00aae7" stroke-linecap="round" stroke-linejoin="round" stroke-width="0.54"/><polygon points="1167.51 965.08 1187.31 965.08 1177.41 985.11 1167.51 1005.16 1157.62 985.11 1147.72 965.08 1167.51 965.08" fill="none" stroke="#00aae7" stroke-linecap="round" stroke-linejoin="round" stroke-width="0.54"/><path d="M996.4,820.54a3,3,0,0,0,3.18-2.83,3,3,0,0,0-2.82-3.16,3,3,0,0,0-3.17,2.83,3,3,0,0,0,2.81,3.16" transform="translate(151.14 65.84)" fill="#f5d258"/><path d="M928.38,959.8a3,3,0,0,0,3.17-2.83,3,3,0,0,0-2.81-3.16,3,3,0,0,0-3.18,2.83,3,3,0,0,0,2.82,3.16" transform="translate(151.14 65.84)" fill="#f5d258"/><path d="M832.23,1155.11a3,3,0,0,0,3.17-2.83,3,3,0,0,0-2.82-3.16,3,3,0,0,0-.35,6" transform="translate(151.14 65.84)" fill="#f5d258"/><path d="M944.49,797.74a3,3,0,0,0,3.18-2.83,3,3,0,0,0-2.82-3.16,3,3,0,0,0-3.17,2.83,3,3,0,0,0,2.81,3.16" transform="translate(151.14 65.84)" fill="#f5d258"/><path d="M-80.72,958.66a3,3,0,0,0,3.17-2.83,3,3,0,0,0-2.82-3.16,3,3,0,0,0-3.17,2.83,3,3,0,0,0,2.82,3.16" transform="translate(151.14 65.84)" fill="#f5d258"/></svg>