<svg xmlns="http://www.w3.org/2000/svg" width="80.14" height="72.37" viewBox="0 0 80.14 72.37"><title>triangle</title><polygon points="40.07 24.46 27.05 24.46 33.56 12.73 40.07 1 46.58 12.73 53.09 24.46 40.07 24.46" fill="none" stroke="#fff" stroke-linecap="round" stroke-linejoin="round" stroke-width="2"/><polygon points="40.08 24.46 53.09 24.46 46.58 36.19 40.08 47.92 33.56 36.19 27.05 24.46 40.08 24.46" fill="none" stroke="#fff" stroke-linecap="round" stroke-linejoin="round" stroke-width="2"/><polygon points="27.05 47.92 14.02 47.92 20.54 36.19 27.05 24.46 33.56 36.19 40.07 47.92 27.05 47.92" fill="none" stroke="#fff" stroke-linecap="round" stroke-linejoin="round" stroke-width="2"/><polygon points="27.05 47.92 40.07 47.92 33.56 59.64 27.05 71.37 20.54 59.64 14.02 47.92 27.05 47.92" fill="none" stroke="#fff" stroke-linecap="round" stroke-linejoin="round" stroke-width="2"/><polygon points="53.09 47.92 40.07 47.92 46.58 36.19 53.09 24.46 59.6 36.19 66.12 47.92 53.09 47.92" fill="none" stroke="#fff" stroke-linecap="round" stroke-linejoin="round" stroke-width="2"/><polygon points="66.12 71.37 53.09 71.37 59.6 59.64 66.12 47.92 72.63 59.64 79.14 71.37 66.12 71.37" fill="none" stroke="#fff" stroke-linecap="round" stroke-linejoin="round" stroke-width="2"/><polygon points="40.07 71.37 27.05 71.37 33.56 59.64 40.07 47.92 46.58 59.64 53.09 71.37 40.07 71.37" fill="none" stroke="#fff" stroke-linecap="round" stroke-linejoin="round" stroke-width="2"/><polygon points="14.02 71.37 1 71.37 7.51 59.64 14.02 47.92 20.54 59.64 27.05 71.37 14.02 71.37" fill="none" stroke="#fff" stroke-linecap="round" stroke-linejoin="round" stroke-width="2"/><polygon points="53.09 47.92 66.12 47.92 59.6 59.64 53.09 71.37 46.58 59.64 40.07 47.92 53.09 47.92" fill="none" stroke="#fff" stroke-linecap="round" stroke-linejoin="round" stroke-width="2"/></svg>